<svg xmlns="http://www.w3.org/2000/svg" xmlns:xlink="http://www.w3.org/1999/xlink" viewBox="0 0 500 500"><defs><clipPath id="freepik--clip-path--inject-183"><polygon points="218.2 69.78 88.03 95.96 348.36 95.96 218.2 69.78" style="fill:#9DC3C1;stroke:#263238;stroke-linecap:round;stroke-linejoin:round"></polygon></clipPath><clipPath id="freepik--clip-path-2--inject-183"><path d="M345.43,274.64s1.77,11,.32,17.76-9,13.08-16.31,15.34-28.09,6.46-37.78,7.75-12,1.61-12,1.61,13.08,17.44,18.25,23.58,7.75,7.1,5.65,7.91-11.95,3.71-13.56,2.9-9.21-7.75-18.89-15-19.22-15.83-22.28-21.31,1-8.88,3.55-10.66,11.78-6.3,19.7-10.33,18.24-14.05,20.34-16,10.17,2.42,18.89,2.42,22.93-1.29,27-3.39S344.78,273.51,345.43,274.64Z" style="fill:#878787;stroke:#263238;stroke-linecap:round;stroke-linejoin:round"></path></clipPath><clipPath id="freepik--clip-path-3--inject-183"><path d="M294.73,208.6a47.48,47.48,0,0,0-2.26,15.18c.16,8.4,1,20.51-1.29,31s-3.39,24.7,3.07,27.45,24.05,4.84,34.87,2.1,16.31-2.91,16.79-10.66S342,244,336.71,226.36s-17.44-29.22-21.31-32.13-4.85-4.19-5.82-3.87-7.42,8.4-10.65,11.95A21,21,0,0,0,294.73,208.6Z" style="fill:#9DC3C1;stroke:#263238;stroke-linecap:round;stroke-linejoin:round"></path></clipPath><clipPath id="freepik--clip-path-4--inject-183"><path d="M278.58,161.78s-3.22,4-3.22,7.43-1.14,7.59-2.27,9-3.71,2.58-2.74,4.36a6.63,6.63,0,0,0,3.23,2.58c.06,0,.43,4.31.5,4.7,1.12,5.74,6.31,9.73,11.93,10.64,5,.81,7.91,3.07,8.24,3.72s14.69-16.31,14.69-16.31-3.88-3.39-3.88-4.85,2.91-2.26,2.26-3.87.81-3.88-6.94-11.79S282.3,157.42,278.58,161.78Z" style="fill:#fff;stroke:#263238;stroke-linecap:round;stroke-linejoin:round"></path></clipPath><clipPath id="freepik--clip-path-5--inject-183"><path d="M275.84,158.23s12.27,8.72,19.7,14.05S307,181,308,180.51s.81-2.74.81-2.74,7.1-3.23,7.58-9.53-6.94-10.17-15.66-17.44-18.56-11.94-22.76-6.94-.65,10.5-.65,10.5Z" style="fill:#9DC3C1;stroke:#263238;stroke-linecap:round;stroke-linejoin:round"></path></clipPath><clipPath id="freepik--clip-path-6--inject-183"><path d="M315.07,207.64s-6.29-2.59-9.36,5.49-5.17,38.74-5.17,38.74l-36.33,6.62.17,6s22.44,4.2,37.29,2.74,21.8-1.29,22.28-4.68.33-44.72-.48-47.79" style="fill:#9DC3C1;stroke:#263238;stroke-linecap:round;stroke-linejoin:round"></path></clipPath></defs><g id="freepik--background-simple--inject-183"><path d="M56.84,342.49s29.73,67,104.36,88.57S315.11,423,380,400.64s98.73-78.78,83.95-136.3-69.48-53.16-120.78-104.09S285.9,88,215.08,73.21,67.14,118.38,48.21,202.83,56.84,342.49,56.84,342.49Z" style="fill:#9DC3C1"></path><path d="M56.84,342.49s29.73,67,104.36,88.57S315.11,423,380,400.64s98.73-78.78,83.95-136.3-69.48-53.16-120.78-104.09S285.9,88,215.08,73.21,67.14,118.38,48.21,202.83,56.84,342.49,56.84,342.49Z" style="fill:#fff;opacity:0.7000000000000001"></path></g><g id="freepik--Trees--inject-183"><path d="M312.09,262.62s-25.55,2.53-38.5,18.37c0,0-13.68-18.35-38.25-18a49.66,49.66,0,1,1,76.75-.35Z" style="fill:#9DC3C1"></path><path d="M312.09,262.62s-25.55,2.53-38.5,18.37c0,0-13.68-18.35-38.25-18a49.66,49.66,0,1,1,76.75-.35Z" style="fill:#fff;opacity:0.5"></path><polygon points="274.44 185.18 275.3 444.36 270.99 444.36 274.44 185.18" style="fill:#828282"></polygon><path d="M273.14,276.16s-8.62-15.52-24.14-20.27c0,0,16.38,3.88,24.57,17.25Z" style="fill:#828282"></path><path d="M274.08,232.6s-9.56-15.95-25.08-20.69c0,0,16.89,4.86,25.08,18.23Z" style="fill:#828282"></path><path d="M273.75,255.27S264.52,238.65,249,233.9c0,0,16.78,4.66,25,18Z" style="fill:#828282"></path><path d="M274.42,243.39s8.32-15.52,23.3-20.27c0,0-15.81,3.88-23.71,17.25Z" style="fill:#828282"></path><path d="M274.42,265s8.32-15.52,23.3-20.27c0,0-15.81,3.88-23.71,17.25Z" style="fill:#828282"></path><path d="M449.32,224.84s-44.61,4.41-67.23,32.07c0,0-23.89-32-66.8-31.39a86.73,86.73,0,1,1,134-.61Z" style="fill:#9DC3C1"></path><path d="M449.32,224.84s-44.61,4.41-67.23,32.07c0,0-23.89-32-66.8-31.39a86.73,86.73,0,1,1,134-.61Z" style="fill:#fff;opacity:0.30000000000000004"></path><polygon points="383.57 89.58 385.07 444.36 377.54 444.36 383.57 89.58" style="fill:#828282"></polygon><path d="M381.31,248.48s-15.06-27.11-42.17-35.4c0,0,28.61,6.78,42.92,30.13Z" style="fill:#828282"></path><path d="M382.44,173.17s-16.19-28.62-43.3-36.9c0,0,28.88,7.86,43.19,31.2Z" style="fill:#828282"></path><path d="M382,211S366.25,183,339.14,174.68c0,0,28.61,6.77,42.92,30.12Z" style="fill:#828282"></path><path d="M383.54,191.24s14.54-27.11,40.69-35.39c0,0-27.61,6.78-41.41,30.12Z" style="fill:#828282"></path><path d="M383.54,228.9s14.54-27.11,40.69-35.4c0,0-27.61,6.78-41.41,30.13Z" style="fill:#828282"></path></g><g id="freepik--Clouds--inject-183"><path d="M170,171.84c-4.89-2.67-7.12-.44-8.9-2.67s4.89-8-8.44-13.78c0,0-.89-12.45-19.12-12.89S120.23,155,115.34,158.06s-6.22-1.78-11.11,1.33-2.67,9.34-6.67,10.23-9.33-4-14.22-.89-4.9,5.78-7.12,5.78-6.67-1.78-9.33,0-5.78,4-5.78,4H173.58S174.92,174.51,170,171.84Z" style="fill:#9DC3C1"></path><g style="opacity:0.5"><path d="M170,171.84c-4.89-2.67-7.12-.44-8.9-2.67s4.89-8-8.44-13.78c0,0-.89-12.45-19.12-12.89S120.23,155,115.34,158.06s-6.22-1.78-11.11,1.33-2.67,9.34-6.67,10.23-9.33-4-14.22-.89-4.9,5.78-7.12,5.78-6.67-1.78-9.33,0-5.78,4-5.78,4H173.58S174.92,174.51,170,171.84Z" style="fill:#fff"></path></g><path d="M319.28,74.06c-3-1.64-4.36-.28-5.45-1.64s3-4.89-5.16-8.43c0,0-.55-7.61-11.7-7.89s-8.16,7.62-11.15,9.52-3.81-1.08-6.81.82-1.63,5.71-4.08,6.26-5.71-2.45-8.7-.55-3,3.54-4.35,3.54-4.08-1.09-5.72,0-3.53,2.45-3.53,2.45h68.82S322.27,75.69,319.28,74.06Z" style="fill:#9DC3C1"></path><g style="opacity:0.5"><path d="M319.28,74.06c-3-1.64-4.36-.28-5.45-1.64s3-4.89-5.16-8.43c0,0-.55-7.61-11.7-7.89s-8.16,7.62-11.15,9.52-3.81-1.08-6.81.82-1.63,5.71-4.08,6.26-5.71-2.45-8.7-.55-3,3.54-4.35,3.54-4.08-1.09-5.72,0-3.53,2.45-3.53,2.45h68.82S322.27,75.69,319.28,74.06Z" style="fill:#fff"></path></g></g><g id="freepik--Plants--inject-183"><path d="M92.15,301.09c-.05,0,.64-3.39.7-3.6.79-2.42,3.72-6.63,6.57-6.62a3.37,3.37,0,0,1,3.24,3.83c-.21,2-2,3.7-3.63,4.68C97.12,300.54,92.16,301.09,92.15,301.09Z" style="fill:#9DC3C1"></path><path d="M86.64,278.28c2.68,1,4,5.92,3.93,8.46,0,.22-.52,3.65-.56,3.62l-.06,0c.22.79.44,1.63.67,2.55.4,1.71.84,3.64,1.18,5.77a59,59,0,0,1,.75,6.94,44.05,44.05,0,0,1-.26,7.81s0,.06,0,.09c.35-.75,1.41-2.84,1.5-3,1.4-2.12,5.34-5.41,8.09-4.65a3.37,3.37,0,0,1,2.11,4.54c-.73,1.88-2.91,3.05-4.74,3.57-2,.58-6.65-.11-7-.17a59.54,59.54,0,0,1-1.69,7.78c-.42,1.49-.89,3-1.38,4.46.32-.65.62-1.22.67-1.3,1.39-2.12,5.33-5.41,8.08-4.65a3.37,3.37,0,0,1,2.11,4.55c-.73,1.87-2.91,3-4.73,3.56s-5.78,0-6.82-.13c-.19.56-.38,1.13-.58,1.7-.94,2.72-1.89,5.43-2.74,8.11-.3.95-.56,1.89-.82,2.84.29-.58.53-1.06.58-1.13,1.39-2.12,5.34-5.41,8.08-4.65a3.36,3.36,0,0,1,2.11,4.55c-.72,1.87-2.9,3-4.73,3.56s-5.4.06-6.63-.11c-.24,1-.49,1.95-.68,2.9-.11.66-.27,1.28-.35,1.94l-.27,2c-.13,1.25-.27,2.53-.36,3.75-.08.84-.13,1.65-.18,2.46.28-.94.89-2.78,1-2.93a13,13,0,0,1,4.36-5,3.21,3.21,0,0,1,.37-.65,3.37,3.37,0,0,1,5-.77c2.16,1.86,1.62,7,.63,9.3-.06.14-.86,1.57-1.38,2.46.38-.48.75-.95,1.15-1.43.79-1,1.61-1.91,2.49-2.93l1.33-1.45c.44-.49,1-.95,1.44-1.44,1.14-1.1,2.35-2.16,3.59-3.2-.85-.69-3.82-3.2-4.67-4.91s-1.47-4.1-.58-5.9a3.37,3.37,0,0,1,4.78-1.51c2.41,1.51,2.66,6.64,2,9.1,0,.16-.69,1.87-1.06,2.81.75-.62,1.5-1.24,2.28-1.84,2.25-1.74,4.58-3.43,6.9-5.13l2.11-1.57c-.3-.24-3.9-3.15-4.85-5.06-.85-1.7-1.46-4.1-.57-5.9a3.37,3.37,0,0,1,4.78-1.51c2.41,1.51,2.65,6.64,2,9.1,0,.19-1,2.66-1.25,3.27,1.55-1.15,3.09-2.32,4.56-3.53a58.8,58.8,0,0,0,5.63-5.24C123.74,330,120,327,119,325c-.85-1.7-1.46-4.1-.57-5.9a3.37,3.37,0,0,1,4.78-1.52c2.41,1.52,2.65,6.64,2,9.11,0,.16-.76,2-1.11,2.93l.13.09a43.49,43.49,0,0,0,4.63-6.21c.75-1.2,1.41-2.4,2-3.57-.76-.49-4.2-2.77-5.28-4.43s-1.9-3.91-1.22-5.8a3.38,3.38,0,0,1,4.59-2c2.56,1.24,3.36,6.31,3,8.83,0,.14-.36,1.51-.63,2.5.27-.53.56-1.08.8-1.6.94-1.94,1.68-3.77,2.32-5.4.36-.93.66-1.77.94-2.57-.5-.87-2.44-4.4-2.63-6.33s.11-4.35,1.59-5.71a3.38,3.38,0,0,1,5,.31c1.7,2.28.08,7.15-1.39,9.22-.13.18-2.44,2.76-2.47,2.71l0-.05c-.25.77-.53,1.59-.85,2.49-.6,1.64-1.3,3.5-2.2,5.46a59.49,59.49,0,0,1-3.2,6.21,43.92,43.92,0,0,1-4.53,6.37l-.06.06c.71-.43,2.74-1.59,2.9-1.66,2.34-1,7.44-1.57,9.31.57a3.37,3.37,0,0,1-.74,5c-1.64,1.16-4.11.94-5.92.36-2-.65-5.49-3.76-5.76-4a61.24,61.24,0,0,1-5.7,5.55c-1.17,1-2.38,2-3.61,3,.62-.36,1.19-.68,1.27-.71,2.34-1,7.44-1.57,9.31.57a3.37,3.37,0,0,1-.75,5c-1.64,1.16-4.1.93-5.91.36s-4.83-3.18-5.61-3.87c-.48.36-1,.73-1.42,1.1-2.29,1.75-4.58,3.48-6.77,5.26-.77.62-1.51,1.26-2.25,1.9.56-.32,1-.58,1.11-.61,2.33-1,7.44-1.57,9.31.57a3.37,3.37,0,0,1-.75,5c-1.64,1.16-4.1.94-5.91.36s-4.54-2.92-5.47-3.75c-.74.68-1.48,1.36-2.17,2-.46.48-.93.92-1.36,1.43L96.49,355c-.8,1-1.62,2-2.37,2.92-.53.67-1,1.31-1.52,2,.77-.63,2.28-1.83,2.42-1.92,2.16-1.34,7.12-2.68,9.29-.84a3.36,3.36,0,0,1,0,5c-1.44,1.4-3.91,1.55-5.79,1.26-2.06-.33-5.8-2.76-6.27-3.07-.81,1.07-1.6,2.13-2.32,3.13-2.51,3.48-4.48,6.47-5.82,8.58l-.14.22-1.74-.85.28-.41c1.4-2.11,3.45-5.08,6.07-8.54.82-1.09,1.72-2.25,2.66-3.42a37.2,37.2,0,0,1-2.7-3.35c-2,.79-6.17.82-6.71.82-.08,1.34-.16,2.65-.21,3.89-.18,4.29-.16,7.87-.12,10.37,0,.1,0,.19,0,.29l-1.92-.93c0-2.48.1-5.84.35-9.82.08-1.37.2-2.82.34-4.32-.54-.13-4.87-1.25-6.5-2.55s-3.05-3.11-3-5.12a3.37,3.37,0,0,1,3.7-3.38c2.83.37,5.19,4.92,5.66,7.42,0,.15.15,1.78.2,2.81.06-.61.11-1.2.18-1.83.12-1.25.29-2.48.45-3.82.11-.64.21-1.28.32-1.94s.27-1.32.4-2c.35-1.55.77-3.1,1.23-4.65-1.09-.11-5-.57-6.6-1.52s-3.48-2.61-3.74-4.6a3.37,3.37,0,0,1,3.16-3.9c2.84-.07,5.87,4.07,6.71,6.47,0,.15.46,1.94.67,2.93.28-.93.56-1.86.88-2.8.91-2.69,1.92-5.38,2.92-8.08.31-.82.6-1.65.9-2.48-.39,0-5-.47-6.84-1.54-1.65-.94-3.48-2.61-3.73-4.6a3.37,3.37,0,0,1,3.15-3.9c2.85-.07,5.88,4.08,6.71,6.47.07.19.65,2.76.77,3.42.65-1.81,1.29-3.63,1.85-5.45a59.67,59.67,0,0,0,1.8-7.48c-.18,0-5-.46-6.88-1.55-1.65-.94-3.48-2.61-3.73-4.6a3.37,3.37,0,0,1,3.15-3.9c2.85-.07,5.88,4.08,6.71,6.47.06.16.51,2.12.7,3.06h.16a42.7,42.7,0,0,0,.43-7.73c0-1.42-.14-2.78-.27-4.1-.91,0-5,0-6.85-.78s-3.74-2.21-4.21-4.16a3.37,3.37,0,0,1,2.7-4.23c2.82-.38,6.29,3.41,7.38,5.7.06.13.53,1.46.86,2.44-.07-.6-.14-1.21-.21-1.78-.29-2.13-.69-4.07-1-5.78-.22-1-.43-1.85-.64-2.66-.89-.45-4.46-2.32-5.68-3.84s-2.31-3.68-1.82-5.63A3.37,3.37,0,0,1,86.64,278.28Z" style="fill:#9DC3C1"></path><path d="M138.1,322.16c-2.23-.09-6.67-2.37-6.67-2.37s2.39-2.47,2.56-2.61c2-1.59,6.76-3.48,9.13-1.9a3.36,3.36,0,0,1,.59,5C142.44,321.81,140,322.24,138.1,322.16Z" style="fill:#9DC3C1"></path><g style="opacity:0.5"><path d="M92.15,301.09c-.05,0,.64-3.39.7-3.6.79-2.42,3.72-6.63,6.57-6.62a3.37,3.37,0,0,1,3.24,3.83c-.21,2-2,3.7-3.63,4.68C97.12,300.54,92.16,301.09,92.15,301.09Z" style="fill:#fff"></path><path d="M86.64,278.28c2.68,1,4,5.92,3.93,8.46,0,.22-.52,3.65-.56,3.62l-.06,0c.22.79.44,1.63.67,2.55.4,1.71.84,3.64,1.18,5.77a59,59,0,0,1,.75,6.94,44.05,44.05,0,0,1-.26,7.81s0,.06,0,.09c.35-.75,1.41-2.84,1.5-3,1.4-2.12,5.34-5.41,8.09-4.65a3.37,3.37,0,0,1,2.11,4.54c-.73,1.88-2.91,3.05-4.74,3.57-2,.58-6.65-.11-7-.17a59.54,59.54,0,0,1-1.69,7.78c-.42,1.49-.89,3-1.38,4.46.32-.65.62-1.22.67-1.3,1.39-2.12,5.33-5.41,8.08-4.65a3.37,3.37,0,0,1,2.11,4.55c-.73,1.87-2.91,3-4.73,3.56s-5.78,0-6.82-.13c-.19.56-.38,1.13-.58,1.7-.94,2.72-1.89,5.43-2.74,8.11-.3.95-.56,1.89-.82,2.84.29-.58.53-1.06.58-1.13,1.39-2.12,5.34-5.41,8.08-4.65a3.36,3.36,0,0,1,2.11,4.55c-.72,1.87-2.9,3-4.73,3.56s-5.4.06-6.63-.11c-.24,1-.49,1.95-.68,2.9-.11.66-.27,1.28-.35,1.94l-.27,2c-.13,1.25-.27,2.53-.36,3.75-.08.84-.13,1.65-.18,2.46.28-.94.89-2.78,1-2.93a13,13,0,0,1,4.36-5,3.21,3.21,0,0,1,.37-.65,3.37,3.37,0,0,1,5-.77c2.16,1.86,1.62,7,.63,9.3-.06.14-.86,1.57-1.38,2.46.38-.48.75-.95,1.15-1.43.79-1,1.61-1.91,2.49-2.93l1.33-1.45c.44-.49,1-.95,1.44-1.44,1.14-1.1,2.35-2.16,3.59-3.2-.85-.69-3.82-3.2-4.67-4.91s-1.47-4.1-.58-5.9a3.37,3.37,0,0,1,4.78-1.51c2.41,1.51,2.66,6.64,2,9.1,0,.16-.69,1.87-1.06,2.81.75-.62,1.5-1.24,2.28-1.84,2.25-1.74,4.58-3.43,6.9-5.13l2.11-1.57c-.3-.24-3.9-3.15-4.85-5.06-.85-1.7-1.46-4.1-.57-5.9a3.37,3.37,0,0,1,4.78-1.51c2.41,1.51,2.65,6.64,2,9.1,0,.19-1,2.66-1.25,3.27,1.55-1.15,3.09-2.32,4.56-3.53a58.8,58.8,0,0,0,5.63-5.24C123.74,330,120,327,119,325c-.85-1.7-1.46-4.1-.57-5.9a3.37,3.37,0,0,1,4.78-1.52c2.41,1.52,2.65,6.64,2,9.11,0,.16-.76,2-1.11,2.93l.13.09a43.49,43.49,0,0,0,4.63-6.21c.75-1.2,1.41-2.4,2-3.57-.76-.49-4.2-2.77-5.28-4.43s-1.9-3.91-1.22-5.8a3.38,3.38,0,0,1,4.59-2c2.56,1.24,3.36,6.31,3,8.83,0,.14-.36,1.51-.63,2.5.27-.53.56-1.08.8-1.6.94-1.94,1.68-3.77,2.32-5.4.36-.93.66-1.77.94-2.57-.5-.87-2.44-4.4-2.63-6.33s.11-4.35,1.59-5.71a3.38,3.38,0,0,1,5,.31c1.7,2.28.08,7.15-1.39,9.22-.13.18-2.44,2.76-2.47,2.71l0-.05c-.25.77-.53,1.59-.85,2.49-.6,1.64-1.3,3.5-2.2,5.46a59.49,59.49,0,0,1-3.2,6.21,43.92,43.92,0,0,1-4.53,6.37l-.06.06c.71-.43,2.74-1.59,2.9-1.66,2.34-1,7.44-1.57,9.31.57a3.37,3.37,0,0,1-.74,5c-1.64,1.16-4.11.94-5.92.36-2-.65-5.49-3.76-5.76-4a61.24,61.24,0,0,1-5.7,5.55c-1.17,1-2.38,2-3.61,3,.62-.36,1.19-.68,1.27-.71,2.34-1,7.44-1.57,9.31.57a3.37,3.37,0,0,1-.75,5c-1.64,1.16-4.1.93-5.91.36s-4.83-3.18-5.61-3.87c-.48.36-1,.73-1.42,1.1-2.29,1.75-4.58,3.48-6.77,5.26-.77.62-1.51,1.26-2.25,1.9.56-.32,1-.58,1.11-.61,2.33-1,7.44-1.57,9.31.57a3.37,3.37,0,0,1-.75,5c-1.64,1.16-4.1.94-5.91.36s-4.54-2.92-5.47-3.75c-.74.68-1.48,1.36-2.17,2-.46.48-.93.92-1.36,1.43L96.49,355c-.8,1-1.62,2-2.37,2.92-.53.67-1,1.31-1.52,2,.77-.63,2.28-1.83,2.42-1.92,2.16-1.34,7.12-2.68,9.29-.84a3.36,3.36,0,0,1,0,5c-1.44,1.4-3.91,1.55-5.79,1.26-2.06-.33-5.8-2.76-6.27-3.07-.81,1.07-1.6,2.13-2.32,3.13-2.51,3.48-4.48,6.47-5.82,8.58l-.14.22-1.74-.85.28-.41c1.4-2.11,3.45-5.08,6.07-8.54.82-1.09,1.72-2.25,2.66-3.42a37.2,37.2,0,0,1-2.7-3.35c-2,.79-6.17.82-6.71.82-.08,1.34-.16,2.65-.21,3.89-.18,4.29-.16,7.87-.12,10.37,0,.1,0,.19,0,.29l-1.92-.93c0-2.48.1-5.84.35-9.82.08-1.37.2-2.82.34-4.32-.54-.13-4.87-1.25-6.5-2.55s-3.05-3.11-3-5.12a3.37,3.37,0,0,1,3.7-3.38c2.83.37,5.19,4.92,5.66,7.42,0,.15.15,1.78.2,2.81.06-.61.11-1.2.18-1.83.12-1.25.29-2.48.45-3.82.11-.64.21-1.28.32-1.94s.27-1.32.4-2c.35-1.55.77-3.1,1.23-4.65-1.09-.11-5-.57-6.6-1.52s-3.48-2.61-3.74-4.6a3.37,3.37,0,0,1,3.16-3.9c2.84-.07,5.87,4.07,6.71,6.47,0,.15.46,1.94.67,2.93.28-.93.56-1.86.88-2.8.91-2.69,1.92-5.38,2.92-8.08.31-.82.6-1.65.9-2.48-.39,0-5-.47-6.84-1.54-1.65-.94-3.48-2.61-3.73-4.6a3.37,3.37,0,0,1,3.15-3.9c2.85-.07,5.88,4.08,6.71,6.47.07.19.65,2.76.77,3.42.65-1.81,1.29-3.63,1.85-5.45a59.67,59.67,0,0,0,1.8-7.48c-.18,0-5-.46-6.88-1.55-1.65-.94-3.48-2.61-3.73-4.6a3.37,3.37,0,0,1,3.15-3.9c2.85-.07,5.88,4.08,6.71,6.47.06.16.51,2.12.7,3.06h.16a42.7,42.7,0,0,0,.43-7.73c0-1.42-.14-2.78-.27-4.1-.91,0-5,0-6.85-.78s-3.74-2.21-4.21-4.16a3.37,3.37,0,0,1,2.7-4.23c2.82-.38,6.29,3.41,7.38,5.7.06.13.53,1.46.86,2.44-.07-.6-.14-1.21-.21-1.78-.29-2.13-.69-4.07-1-5.78-.22-1-.43-1.85-.64-2.66-.89-.45-4.46-2.32-5.68-3.84s-2.31-3.68-1.82-5.63A3.37,3.37,0,0,1,86.64,278.28Z" style="fill:#fff"></path><path d="M138.1,322.16c-2.23-.09-6.67-2.37-6.67-2.37s2.39-2.47,2.56-2.61c2-1.59,6.76-3.48,9.13-1.9a3.36,3.36,0,0,1,.59,5C142.44,321.81,140,322.24,138.1,322.16Z" style="fill:#fff"></path></g><path d="M112.13,377.87s-13.5-32.54-21.06-31.13,13,51.88,13,51.88-23.75-44.8-39.95-44.8,5.94,49.51,26.45,66c0,0-32.38-34.9-51.28-27.35S77,435.4,77,435.4,44.11,425,47.89,433s14,9.43,14,9.43l-37.24,1.89H154.23l-29.15-2.83s30.23-15.09,22.14-21.22-25.92,7.07-25.92,7.07,30.77-33.95,24.84-46.68-32.39,23.1-32.39,23.1S135.34,358.06,131,350,112.13,377.87,112.13,377.87Z" style="fill:#9DC3C1"></path><path d="M112.13,377.87s-13.5-32.54-21.06-31.13,13,51.88,13,51.88-23.75-44.8-39.95-44.8,5.94,49.51,26.45,66c0,0-32.38-34.9-51.28-27.35S77,435.4,77,435.4,44.11,425,47.89,433s14,9.43,14,9.43l-37.24,1.89H154.23l-29.15-2.83s30.23-15.09,22.14-21.22-25.92,7.07-25.92,7.07,30.77-33.95,24.84-46.68-32.39,23.1-32.39,23.1S135.34,358.06,131,350,112.13,377.87,112.13,377.87Z" style="fill:#fff;opacity:0.4"></path><path d="M116.45,379.58c-11.88,35.09-11.88,59.92-11.88,59.92s14,.54,28.61-10.26" style="fill:none;stroke:#787878;stroke-linecap:round;stroke-linejoin:round"></path><path d="M110.51,398.47a210.47,210.47,0,0,0-9.72-30.77" style="fill:none;stroke:#787878;stroke-linecap:round;stroke-linejoin:round"></path><path d="M75.42,378l30.23,44.81s20.51-17.28,27.53-27" style="fill:none;stroke:#787878;stroke-linecap:round;stroke-linejoin:round"></path><path d="M105.11,433.56S73.26,418.45,60.3,409.81" style="fill:none;stroke:#787878;stroke-linecap:round;stroke-linejoin:round"></path><path d="M201.23,352.33s.4-2.18.45-2.31c.5-1.55,2.39-4.26,4.21-4.26a2.17,2.17,0,0,1,2.08,2.46,4.49,4.49,0,0,1-2.32,3A15.32,15.32,0,0,1,201.23,352.33Z" style="fill:#9DC3C1"></path><path d="M197.69,337.68c1.72.62,2.57,3.8,2.52,5.44,0,.14-.33,2.33-.36,2.32l0,0c.14.5.29,1,.43,1.64.26,1.09.54,2.33.76,3.71a36.55,36.55,0,0,1,.48,4.45,27.61,27.61,0,0,1-.17,5,.13.13,0,0,1,0,.06c.23-.49.9-1.83,1-1.92.89-1.37,3.43-3.48,5.19-3a2.17,2.17,0,0,1,1.36,2.92,4.57,4.57,0,0,1-3,2.29,15.11,15.11,0,0,1-4.51-.11,38.31,38.31,0,0,1-1.09,5c-.27.95-.57,1.91-.88,2.86.2-.41.39-.78.43-.83.89-1.37,3.43-3.48,5.19-3a2.16,2.16,0,0,1,1.35,2.92,4.52,4.52,0,0,1-3,2.29,14.1,14.1,0,0,1-4.37-.09l-.38,1.1c-.6,1.74-1.21,3.48-1.76,5.21-.19.61-.36,1.21-.53,1.82.19-.37.35-.68.38-.72.89-1.37,3.43-3.48,5.19-3a2.17,2.17,0,0,1,1.36,2.92,4.56,4.56,0,0,1-3.05,2.29,13.86,13.86,0,0,1-4.25-.07c-.16.62-.32,1.25-.44,1.86-.07.42-.17.82-.22,1.25l-.18,1.25c-.08.8-.17,1.62-.23,2.4-.05.55-.08,1.07-.12,1.59.19-.61.57-1.79.62-1.89a8.41,8.41,0,0,1,2.79-3.18,2.86,2.86,0,0,1,.24-.42,2.17,2.17,0,0,1,3.18-.5c1.39,1.2,1,4.48.4,6,0,.09-.55,1-.88,1.58.25-.31.48-.61.74-.92.51-.62,1-1.23,1.6-1.88l.85-.93c.28-.32.62-.61.93-.93.73-.7,1.51-1.38,2.3-2.05a14.36,14.36,0,0,1-3-3.16,4.5,4.5,0,0,1-.37-3.78,2.16,2.16,0,0,1,3.07-1c1.55,1,1.71,4.27,1.31,5.85,0,.1-.44,1.2-.68,1.81.48-.4,1-.8,1.46-1.19,1.44-1.12,2.94-2.2,4.43-3.29l1.36-1a15.3,15.3,0,0,1-3.12-3.25,4.52,4.52,0,0,1-.37-3.79,2.17,2.17,0,0,1,3.07-1c1.55,1,1.71,4.26,1.31,5.85,0,.11-.63,1.7-.81,2.1,1-.74,2-1.49,2.93-2.27a37.65,37.65,0,0,0,3.62-3.37,15.08,15.08,0,0,1-3.14-3.26,4.52,4.52,0,0,1-.37-3.79,2.16,2.16,0,0,1,3.07-1c1.55,1,1.7,4.27,1.3,5.85,0,.11-.48,1.32-.71,1.89l.09.05a28.44,28.44,0,0,0,3-4c.48-.77.91-1.53,1.3-2.29a14.52,14.52,0,0,1-3.39-2.84,4.56,4.56,0,0,1-.78-3.73,2.15,2.15,0,0,1,2.94-1.3c1.65.79,2.17,4.05,1.94,5.67,0,.09-.23,1-.41,1.6.18-.34.36-.69.52-1,.6-1.25,1.08-2.42,1.49-3.47.23-.6.42-1.14.6-1.65a14.49,14.49,0,0,1-1.69-4.07,4.57,4.57,0,0,1,1-3.67,2.17,2.17,0,0,1,3.21.2c1.1,1.47,0,4.6-.89,5.93-.09.11-1.57,1.77-1.59,1.74l0,0c-.16.5-.33,1-.54,1.6-.39,1.06-.84,2.25-1.42,3.51a38,38,0,0,1-2.05,4,28.24,28.24,0,0,1-2.91,4.09l0,0c.46-.28,1.76-1,1.86-1.07,1.5-.64,4.78-1,6,.37a2.18,2.18,0,0,1-.48,3.19,4.55,4.55,0,0,1-3.8.23,15,15,0,0,1-3.7-2.58,37.63,37.63,0,0,1-3.67,3.57c-.75.65-1.53,1.28-2.32,1.9l.82-.46c1.5-.64,4.78-1,6,.37a2.17,2.17,0,0,1-.48,3.19,4.5,4.5,0,0,1-3.8.23,14.09,14.09,0,0,1-3.6-2.49l-.91.71c-1.47,1.12-2.94,2.24-4.35,3.38-.49.4-1,.81-1.44,1.22l.7-.39c1.51-.65,4.78-1,6,.37a2.16,2.16,0,0,1-.47,3.18,4.51,4.51,0,0,1-3.8.23,13.56,13.56,0,0,1-3.52-2.4c-.47.43-1,.87-1.39,1.31-.29.31-.6.59-.87.92L204,387c-.51.62-1,1.26-1.52,1.88-.34.43-.65.84-1,1.26.49-.41,1.46-1.18,1.55-1.23,1.38-.87,4.57-1.72,6-.54a2.18,2.18,0,0,1,0,3.22,4.56,4.56,0,0,1-3.73.8,14.91,14.91,0,0,1-4-2c-.53.69-1,1.37-1.49,2-1.62,2.24-2.88,4.16-3.74,5.51L196,398l-1.12-.54.18-.27c.9-1.35,2.21-3.26,3.9-5.48.52-.7,1.1-1.44,1.71-2.2a21.79,21.79,0,0,1-1.74-2.15,15.9,15.9,0,0,1-4.3.52c-.06.87-.11,1.71-.14,2.51-.12,2.75-.11,5.05-.08,6.66v.18l-1.23-.59c0-1.6.07-3.76.23-6.31.05-.88.13-1.82.21-2.78a14.68,14.68,0,0,1-4.17-1.64,4.53,4.53,0,0,1-1.92-3.28,2.16,2.16,0,0,1,2.38-2.17c1.81.23,3.33,3.16,3.63,4.76,0,.1.1,1.15.13,1.81,0-.39.07-.78.12-1.18.08-.8.18-1.59.29-2.45.07-.41.13-.83.2-1.25s.18-.85.26-1.28c.22-1,.49-2,.79-3a14.13,14.13,0,0,1-4.24-1,4.53,4.53,0,0,1-2.4-3,2.16,2.16,0,0,1,2-2.5c1.83-.05,3.78,2.61,4.32,4.16,0,.09.29,1.24.42,1.88.19-.6.37-1.2.57-1.8.59-1.73,1.24-3.46,1.88-5.19.2-.53.39-1.06.58-1.59a15.1,15.1,0,0,1-4.4-1,4.54,4.54,0,0,1-2.39-3,2.15,2.15,0,0,1,2-2.5c1.83-.05,3.78,2.61,4.31,4.16,0,.11.42,1.77.49,2.19.42-1.17.83-2.34,1.19-3.5a37.32,37.32,0,0,0,1.16-4.81,15.3,15.3,0,0,1-4.42-1,4.56,4.56,0,0,1-2.4-3,2.17,2.17,0,0,1,2-2.5c1.83-.05,3.77,2.62,4.31,4.16,0,.1.32,1.36.44,2h.11a28.2,28.2,0,0,0,.28-5c0-.92-.09-1.79-.18-2.64a14.44,14.44,0,0,1-4.4-.5,4.53,4.53,0,0,1-2.7-2.68,2.16,2.16,0,0,1,1.73-2.71c1.81-.24,4,2.19,4.75,3.66,0,.08.33.94.54,1.57,0-.38-.08-.78-.13-1.14-.19-1.37-.44-2.62-.67-3.72-.14-.62-.28-1.18-.41-1.71a14.45,14.45,0,0,1-3.66-2.46,4.51,4.51,0,0,1-1.16-3.62A2.16,2.16,0,0,1,197.69,337.68Z" style="fill:#9DC3C1"></path><path d="M230.74,365.87a15.71,15.71,0,0,1-4.29-1.53s1.54-1.59,1.65-1.67c1.28-1,4.34-2.24,5.87-1.23a2.17,2.17,0,0,1,.38,3.2A4.53,4.53,0,0,1,230.74,365.87Z" style="fill:#9DC3C1"></path><g style="opacity:0.5"><path d="M201.23,352.33s.4-2.18.45-2.31c.5-1.55,2.39-4.26,4.21-4.26a2.17,2.17,0,0,1,2.08,2.46,4.49,4.49,0,0,1-2.32,3A15.32,15.32,0,0,1,201.23,352.33Z" style="fill:#fff"></path><path d="M197.69,337.68c1.72.62,2.57,3.8,2.52,5.44,0,.14-.33,2.33-.36,2.32l0,0c.14.5.29,1,.43,1.64.26,1.09.54,2.33.76,3.71a36.55,36.55,0,0,1,.48,4.45,27.61,27.61,0,0,1-.17,5,.13.13,0,0,1,0,.06c.23-.49.9-1.83,1-1.92.89-1.37,3.43-3.48,5.19-3a2.17,2.17,0,0,1,1.36,2.92,4.57,4.57,0,0,1-3,2.29,15.11,15.11,0,0,1-4.51-.11,38.31,38.31,0,0,1-1.09,5c-.27.95-.57,1.91-.88,2.86.2-.41.39-.78.43-.83.89-1.37,3.43-3.48,5.19-3a2.16,2.16,0,0,1,1.35,2.92,4.52,4.52,0,0,1-3,2.29,14.1,14.1,0,0,1-4.37-.09l-.38,1.1c-.6,1.74-1.21,3.48-1.76,5.21-.19.61-.36,1.21-.53,1.82.19-.37.35-.68.38-.72.89-1.37,3.43-3.48,5.19-3a2.17,2.17,0,0,1,1.36,2.92,4.56,4.56,0,0,1-3.05,2.29,13.86,13.86,0,0,1-4.25-.07c-.16.62-.32,1.25-.44,1.86-.07.42-.17.82-.22,1.25l-.18,1.25c-.08.8-.17,1.62-.23,2.4-.05.55-.08,1.07-.12,1.59.19-.61.57-1.79.62-1.89a8.41,8.41,0,0,1,2.79-3.18,2.86,2.86,0,0,1,.24-.42,2.17,2.17,0,0,1,3.18-.5c1.39,1.2,1,4.48.4,6,0,.09-.55,1-.88,1.58.25-.31.48-.61.74-.92.51-.62,1-1.23,1.6-1.88l.85-.93c.28-.32.62-.61.93-.93.73-.7,1.51-1.38,2.3-2.05a14.36,14.36,0,0,1-3-3.16,4.5,4.5,0,0,1-.37-3.78,2.16,2.16,0,0,1,3.07-1c1.55,1,1.71,4.27,1.31,5.85,0,.1-.44,1.2-.68,1.81.48-.4,1-.8,1.46-1.19,1.44-1.12,2.94-2.2,4.43-3.29l1.36-1a15.3,15.3,0,0,1-3.12-3.25,4.52,4.52,0,0,1-.37-3.79,2.17,2.17,0,0,1,3.07-1c1.55,1,1.71,4.26,1.31,5.85,0,.11-.63,1.7-.81,2.1,1-.74,2-1.49,2.93-2.27a37.65,37.65,0,0,0,3.62-3.37,15.08,15.08,0,0,1-3.14-3.26,4.52,4.52,0,0,1-.37-3.79,2.16,2.16,0,0,1,3.07-1c1.55,1,1.7,4.27,1.3,5.85,0,.11-.48,1.32-.71,1.89l.09.05a28.44,28.44,0,0,0,3-4c.48-.77.91-1.53,1.3-2.29a14.52,14.52,0,0,1-3.39-2.84,4.56,4.56,0,0,1-.78-3.73,2.15,2.15,0,0,1,2.94-1.3c1.65.79,2.17,4.05,1.94,5.67,0,.09-.23,1-.41,1.6.18-.34.36-.69.52-1,.6-1.25,1.08-2.42,1.49-3.47.23-.6.42-1.14.6-1.65a14.49,14.49,0,0,1-1.69-4.07,4.57,4.57,0,0,1,1-3.67,2.17,2.17,0,0,1,3.21.2c1.1,1.47,0,4.6-.89,5.93-.09.11-1.57,1.77-1.59,1.74l0,0c-.16.5-.33,1-.54,1.6-.39,1.06-.84,2.25-1.42,3.51a38,38,0,0,1-2.05,4,28.24,28.24,0,0,1-2.91,4.09l0,0c.46-.28,1.76-1,1.86-1.07,1.5-.64,4.78-1,6,.37a2.18,2.18,0,0,1-.48,3.19,4.55,4.55,0,0,1-3.8.23,15,15,0,0,1-3.7-2.58,37.63,37.63,0,0,1-3.67,3.57c-.75.65-1.53,1.28-2.32,1.9l.82-.46c1.5-.64,4.78-1,6,.37a2.17,2.17,0,0,1-.48,3.19,4.5,4.5,0,0,1-3.8.23,14.09,14.09,0,0,1-3.6-2.49l-.91.71c-1.47,1.12-2.94,2.24-4.35,3.38-.49.4-1,.81-1.44,1.22l.7-.39c1.51-.65,4.78-1,6,.37a2.16,2.16,0,0,1-.47,3.18,4.51,4.51,0,0,1-3.8.23,13.56,13.56,0,0,1-3.52-2.4c-.47.43-1,.87-1.39,1.31-.29.31-.6.59-.87.92L204,387c-.51.62-1,1.26-1.52,1.88-.34.43-.65.84-1,1.26.49-.41,1.46-1.18,1.55-1.23,1.38-.87,4.57-1.72,6-.54a2.18,2.18,0,0,1,0,3.22,4.56,4.56,0,0,1-3.73.8,14.91,14.91,0,0,1-4-2c-.53.69-1,1.37-1.49,2-1.62,2.24-2.88,4.16-3.74,5.51L196,398l-1.12-.54.18-.27c.9-1.35,2.21-3.26,3.9-5.48.52-.7,1.1-1.44,1.71-2.2a21.79,21.79,0,0,1-1.74-2.15,15.9,15.9,0,0,1-4.3.52c-.06.87-.11,1.71-.14,2.51-.12,2.75-.11,5.05-.08,6.66v.18l-1.23-.59c0-1.6.07-3.76.23-6.31.05-.88.13-1.82.21-2.78a14.68,14.68,0,0,1-4.17-1.64,4.53,4.53,0,0,1-1.92-3.28,2.16,2.16,0,0,1,2.38-2.17c1.81.23,3.33,3.16,3.63,4.76,0,.1.1,1.15.13,1.81,0-.39.07-.78.12-1.18.08-.8.18-1.59.29-2.45.07-.41.13-.83.2-1.25s.18-.85.26-1.28c.22-1,.49-2,.79-3a14.13,14.13,0,0,1-4.24-1,4.53,4.53,0,0,1-2.4-3,2.16,2.16,0,0,1,2-2.5c1.83-.05,3.78,2.61,4.32,4.16,0,.09.29,1.24.42,1.88.19-.6.37-1.2.57-1.8.59-1.73,1.24-3.46,1.88-5.19.2-.53.39-1.06.58-1.59a15.1,15.1,0,0,1-4.4-1,4.54,4.54,0,0,1-2.39-3,2.15,2.15,0,0,1,2-2.5c1.83-.05,3.78,2.61,4.31,4.16,0,.11.42,1.77.49,2.19.42-1.17.83-2.34,1.19-3.5a37.32,37.32,0,0,0,1.16-4.81,15.3,15.3,0,0,1-4.42-1,4.56,4.56,0,0,1-2.4-3,2.17,2.17,0,0,1,2-2.5c1.83-.05,3.77,2.62,4.31,4.16,0,.1.32,1.36.44,2h.11a28.2,28.2,0,0,0,.28-5c0-.92-.09-1.79-.18-2.64a14.44,14.44,0,0,1-4.4-.5,4.53,4.53,0,0,1-2.7-2.68,2.16,2.16,0,0,1,1.73-2.71c1.81-.24,4,2.19,4.75,3.66,0,.08.33.94.54,1.57,0-.38-.08-.78-.13-1.14-.19-1.37-.44-2.62-.67-3.72-.14-.62-.28-1.18-.41-1.71a14.45,14.45,0,0,1-3.66-2.46,4.51,4.51,0,0,1-1.16-3.62A2.16,2.16,0,0,1,197.69,337.68Z" style="fill:#fff"></path><path d="M230.74,365.87a15.71,15.71,0,0,1-4.29-1.53s1.54-1.59,1.65-1.67c1.28-1,4.34-2.24,5.87-1.23a2.17,2.17,0,0,1,.38,3.2A4.53,4.53,0,0,1,230.74,365.87Z" style="fill:#fff"></path></g><path d="M214.06,401.65s-8.67-20.9-13.53-20S208.86,415,208.86,415,193.6,386.2,183.2,386.2s3.81,31.81,17,42.41c0,0-20.81-22.42-32.94-17.57s24.27,27.56,24.27,27.56-21.15-6.66-18.73-1.51,9,6.06,9,6.06l-23.93,1.21H241.1l-18.72-1.82s19.42-9.69,14.22-13.63S220,433.45,220,433.45s19.77-21.81,16-30-20.8,14.84-20.8,14.84,13.87-29.39,11.09-34.53S214.06,401.65,214.06,401.65Z" style="fill:#9DC3C1"></path><path d="M214.06,401.65s-8.67-20.9-13.53-20S208.86,415,208.86,415,193.6,386.2,183.2,386.2s3.81,31.81,17,42.41c0,0-20.81-22.42-32.94-17.57s24.27,27.56,24.27,27.56-21.15-6.66-18.73-1.51,9,6.06,9,6.06l-23.93,1.21H241.1l-18.72-1.82s19.42-9.69,14.22-13.63S220,433.45,220,433.45s19.77-21.81,16-30-20.8,14.84-20.8,14.84,13.87-29.39,11.09-34.53S214.06,401.65,214.06,401.65Z" style="fill:#fff;opacity:0.4"></path><path d="M216.83,402.75c-7.63,22.54-7.63,38.49-7.63,38.49s9,.35,18.38-6.59" style="fill:none;stroke:#787878;stroke-linecap:round;stroke-linejoin:round"></path><path d="M213,414.89a135.93,135.93,0,0,0-6.24-19.77" style="fill:none;stroke:#787878;stroke-linecap:round;stroke-linejoin:round"></path><path d="M190.48,401.71l19.42,28.78s13.17-11.1,17.68-17.34" style="fill:none;stroke:#787878;stroke-linecap:round;stroke-linejoin:round"></path><path d="M209.55,437.42s-20.46-9.7-28.78-15.25" style="fill:none;stroke:#787878;stroke-linecap:round;stroke-linejoin:round"></path></g><g id="freepik--Character--inject-183"><path d="M277.13,383.3s-5.81,8.23-9.69,10.49-5.81,4.36-4.52,5.33,4.85,1.46,10.82-.64,12.76-4.2,15.5-5.49,4.2-2.26,2.91-5.82a27.57,27.57,0,0,0-3.72-6.62Z" style="fill:#fff;stroke:#263238;stroke-linecap:round;stroke-linejoin:round"></path><path d="M114,256.67H218.12a0,0,0,0,1,0,0V372.24a0,0,0,0,1,0,0H110.5a0,0,0,0,1,0,0v-112A3.54,3.54,0,0,1,114,256.67Z" style="fill:#9DC3C1;stroke:#263238;stroke-linecap:round;stroke-linejoin:round"></path><path d="M121.47,265.78a2.11,2.11,0,1,1,4.22,0v12.89a2.11,2.11,0,1,1-4.22,0Z" style="fill:#263238"></path><path d="M136.4,263.47c2.74,0,6.47,1.14,6.47,3.83a2,2,0,0,1-2,2c-2,0-1.66-2.49-4.47-2.49-2.09,0-3.69,1.58-3.69,5.34s1.69,5.47,3.69,5.47c2.94,0,2.53-2.78,4.67-2.78a2.07,2.07,0,0,1,2,2.09c0,2.76-3.76,4.05-6.71,4.05-5.36,0-8.13-3.29-8.13-8.63S131.41,263.47,136.4,263.47Z" style="fill:#263238"></path><path d="M145.45,265.72a1.69,1.69,0,0,1,1.87-1.89h8.09a1.73,1.73,0,0,1,0,3.45h-5.78v3.27h4.77a1.68,1.68,0,0,1,0,3.36h-4.77v3.27h6.22a1.73,1.73,0,0,1,0,3.45h-8.53a1.7,1.7,0,0,1-1.87-1.9Z" style="fill:#263238"></path><path d="M128.88,284.54c2.73,0,6.47,1.14,6.47,3.82a2,2,0,0,1-2,2c-2,0-1.67-2.49-4.47-2.49-2.09,0-3.69,1.58-3.69,5.34s1.69,5.47,3.69,5.47c2.93,0,2.52-2.78,4.66-2.78a2.07,2.07,0,0,1,2.05,2.09c0,2.75-3.77,4.05-6.71,4.05-5.37,0-8.14-3.29-8.14-8.63S123.89,284.54,128.88,284.54Z" style="fill:#263238"></path><path d="M137.92,286.78a1.69,1.69,0,0,1,1.87-1.89h5.39c3.79,0,6.14,1.85,6.14,5.14a5.06,5.06,0,0,1-2.95,4.76v0l2.07,4a1.94,1.94,0,0,1,.24.95,2,2,0,0,1-3.85.94L144.37,296h-2.22v3.78a2.12,2.12,0,1,1-4.23,0Zm6.36,5.79c1.43,0,2.71-.4,2.71-2.25s-1.28-2.29-2.71-2.29h-2.13v4.54Z" style="fill:#263238"></path><path d="M153.83,286.78a1.69,1.69,0,0,1,1.87-1.89h8.09a1.73,1.73,0,0,1,0,3.45H158v3.27h4.77a1.68,1.68,0,0,1,0,3.36H158v3.27h6.22a1.73,1.73,0,0,1,0,3.45H155.7a1.69,1.69,0,0,1-1.87-1.89Z" style="fill:#263238"></path><path d="M167.34,299.31l4.17-12.24a3.47,3.47,0,0,1,6.58,0l4.14,12.11a2.54,2.54,0,0,1,.11.67,2,2,0,0,1-3.92.62l-.72-2.34h-6l-.72,2.38a1.92,1.92,0,0,1-3.76-.58A1.84,1.84,0,0,1,167.34,299.31Zm9.32-4.47-1-3.41c-.34-1.07-.53-1.85-.77-2.82h-.27c-.24,1-.43,1.75-.77,2.82l-1.05,3.41Z" style="fill:#263238"></path><path d="M184.58,288a3.31,3.31,0,0,1,3.28-3.32,3.25,3.25,0,0,1,3.08,2.21l2.62,7.5a9.79,9.79,0,0,1,.39,1.49l.11.62h.14l.11-.62a11,11,0,0,1,.41-1.49l2.62-7.59a3.13,3.13,0,0,1,6.09,1V299.8a2.06,2.06,0,1,1-4.11,0v-9.46h-.13l-.18.92a17.57,17.57,0,0,1-.55,2L196,300.38a2.18,2.18,0,0,1-4.14,0l-2.48-7.14a18.81,18.81,0,0,1-.55-2c-.07-.32-.13-.63-.18-.92h-.13v9.55a2,2,0,1,1-3.94,0Z" style="fill:#263238"></path><path d="M182.1,268.8a4.72,4.72,0,1,1-4.71-4.72A4.71,4.71,0,0,1,182.1,268.8Z" style="fill:#fff"></path><circle cx="199.19" cy="271.75" r="2.36" style="fill:#fff"></circle><circle cx="165.6" cy="278.82" r="2.95" style="fill:#fff"></circle><path d="M122.58,311.52a4.42,4.42,0,1,1-4.42-4.42A4.42,4.42,0,0,1,122.58,311.52Z" style="fill:#fff"></path><path d="M149.69,319.48a2.95,2.95,0,1,1-2.94-3A2.94,2.94,0,0,1,149.69,319.48Z" style="fill:#fff"></path><path d="M273.9,309.51s-17.27,16-17.44,24.38,19.22,48.76,20,49.57,11.94-2.42,11.94-2.91-5.49-26.31-5.65-32.61-.48-13.08-.48-13.08,36.16-17.6,45-24.22,12-11,12.27-12.43.33-11-10.49-12.43-24.22,3.71-34.71,9S273.9,309.51,273.9,309.51Z" style="fill:#404040;stroke:#263238;stroke-linecap:round;stroke-linejoin:round"></path><rect x="279.23" y="397.02" width="13.56" height="4.52" style="fill:#9DC3C1;stroke:#263238;stroke-linecap:round;stroke-linejoin:round"></rect><rect x="285.69" y="383.64" width="1.94" height="16.61" style="fill:#fff;stroke:#263238;stroke-linecap:round;stroke-linejoin:round"></rect><circle cx="361.83" cy="391.77" r="52.59" transform="translate(-136.15 582.59) rotate(-68.24)" style="fill:#263238;stroke:#263238;stroke-linecap:round;stroke-linejoin:round"></circle><circle cx="361.83" cy="391.77" r="44.48" transform="translate(-58.83 63.98) rotate(-9.35)" style="fill:#fff;stroke:#263238;stroke-linecap:round;stroke-linejoin:round"></circle><path d="M310.94,371.05a54.95,54.95,0,0,1,105.84,20.72c0,.34,0,.68,0,1l5.35,6.06a61.49,61.49,0,0,0,.43-7.09,60.7,60.7,0,0,0-118.9-17.28Z" style="fill:#474747;stroke:#263238;stroke-linecap:round;stroke-linejoin:round"></path><line x1="358.83" y1="390.24" x2="278.1" y2="390.24" style="fill:none;stroke:#263238;stroke-linecap:round;stroke-linejoin:round;stroke-width:3px"></line><rect x="350.44" y="288.47" width="44.01" height="33.51" style="fill:#9DC3C1;stroke:#263238;stroke-linecap:round;stroke-linejoin:round"></rect><rect x="347.6" y="284.21" width="49.41" height="7.38" style="fill:#9DC3C1;stroke:#263238;stroke-linecap:round;stroke-linejoin:round"></rect><rect x="366.63" y="300.96" width="14.2" height="3.12" rx="1.02" style="fill:#9DC3C1;stroke:#263238;stroke-linecap:round;stroke-linejoin:round"></rect><path d="M196,235.65v15s12.49-7.95,21.86-7.95v-2S206.19,241.05,196,235.65Z" style="fill:#fff;stroke:#263238;stroke-linecap:round;stroke-linejoin:round"></path><path d="M233.74,241.9c0,3.77-3.5,6.82-7.81,6.82s-7.81-3.05-7.81-6.82,3.49-6.81,7.81-6.81S233.74,238.14,233.74,241.9Z" style="fill:#fff;stroke:#263238;stroke-linecap:round;stroke-linejoin:round"></path><rect x="145.5" y="136.6" width="72.79" height="83.19" style="fill:#9DC3C1;stroke:#263238;stroke-linecap:round;stroke-linejoin:round"></rect><circle cx="181.35" cy="179.61" r="31.34" style="fill:#fff;stroke:#263238;stroke-linecap:round;stroke-linejoin:round"></circle><path d="M165.29,188.79,195.84,211a5.94,5.94,0,0,0,7.81-.75h0a5.92,5.92,0,0,0,1.45-5.38l-8.85-38.58Z" style="fill:#263238;stroke:#263238;stroke-linecap:round;stroke-linejoin:round"></path><path d="M164.53,146.74s-8.41,3.82-8.41,11.85,5.35,8.79,5.35,8.79-6.88,10.32-2.68,18.35,16.82,7.65,25.61,2.29c0,0,7.65,14.53,11.85,9.94s-6.11-12.61-6.11-12.61l3.82-5.74s3.44,7.27,5.73,3.06-3.44-9.17-3.44-9.17,5-3.44-.38-13-18.73-7.64-18.73-7.64,3.44.38-.38-6.12S163,142.16,163,142.16,165.67,142.54,164.53,146.74Z" style="fill:#fff;stroke:#263238;stroke-linecap:round;stroke-linejoin:round"></path><circle cx="174.85" cy="172.35" r="2.68" style="fill:#9DC3C1;stroke:#263238;stroke-linecap:round;stroke-linejoin:round"></circle><path d="M181,160.31a2.49,2.49,0,1,1-2.48-2.48A2.49,2.49,0,0,1,181,160.31Z" style="fill:#9DC3C1;stroke:#263238;stroke-linecap:round;stroke-linejoin:round"></path><path d="M169.88,186.3a3.63,3.63,0,1,1-3.63-3.63A3.64,3.64,0,0,1,169.88,186.3Z" style="fill:#9DC3C1;stroke:#263238;stroke-linecap:round;stroke-linejoin:round"></path><circle cx="189.75" cy="172.73" r="1.91" style="fill:#9DC3C1;stroke:#263238;stroke-linecap:round;stroke-linejoin:round"></circle><path d="M166.44,157.25a1.34,1.34,0,1,1-1.34-1.33A1.34,1.34,0,0,1,166.44,157.25Z" style="fill:#9DC3C1;stroke:#263238;stroke-linecap:round;stroke-linejoin:round"></path><circle cx="181.92" cy="184.39" r="1.72" style="fill:#9DC3C1;stroke:#263238;stroke-linecap:round;stroke-linejoin:round"></circle><line x1="218.16" y1="234.66" x2="218.16" y2="67.82" style="fill:none;stroke:#263238;stroke-linecap:round;stroke-linejoin:round;stroke-width:2px"></line><line x1="330.73" y1="312.1" x2="267.93" y2="405.42" style="fill:none;stroke:#263238;stroke-linecap:round;stroke-linejoin:round;stroke-width:3px"></line><line x1="327.18" y1="312.74" x2="361.09" y2="395.41" style="fill:none;stroke:#263238;stroke-linecap:round;stroke-linejoin:round;stroke-width:3px"></line><path d="M342.2,296.38a8.85,8.85,0,0,1,4,7.32c0,2.35.5,4.5-.66,6.71-2.07,3.94-7.09,4.49-11.07,4.34a144.31,144.31,0,0,1-16.37-1.34c-2.06-.32-9.3-1.26-9.52-4.22-.16-2.26,12.76-4.68,19.86-9.85a23.85,23.85,0,0,1,6.38-3.29C337.23,295.27,340,295,342.2,296.38Z" style="fill:#9DC3C1;stroke:#263238;stroke-linecap:round;stroke-linejoin:round"></path><line x1="306.71" y1="405.42" x2="214.97" y2="405.42" style="fill:none;stroke:#263238;stroke-linecap:round;stroke-linejoin:round;stroke-width:5px"></line><polyline points="392.46 340.15 352.69 405.42 306.71 405.42" style="fill:none;stroke:#263238;stroke-linecap:round;stroke-linejoin:round;stroke-width:3px"></polyline><line x1="331.13" y1="323.68" x2="395.3" y2="323.68" style="fill:none;stroke:#263238;stroke-linecap:round;stroke-linejoin:round;stroke-width:3px"></line><line x1="244.81" y1="266.61" x2="217.83" y2="314.59" style="fill:none;stroke:#263238;stroke-linecap:round;stroke-linejoin:round;stroke-width:3px"></line><line x1="218.16" y1="230.83" x2="218.16" y2="373.09" style="fill:none;stroke:#263238;stroke-linecap:round;stroke-linejoin:round;stroke-width:5px"></line><path d="M216.41,308.91H132.05a4.8,4.8,0,0,0-4.8,4.8v58.53" style="fill:none;stroke:#263238;stroke-linecap:round;stroke-linejoin:round;stroke-width:3px"></path><line x1="218.12" y1="373.09" x2="113.62" y2="373.09" style="fill:none;stroke:#263238;stroke-linecap:round;stroke-linejoin:round;stroke-width:3px"></line><circle cx="361.83" cy="391.77" r="11.83" transform="translate(-138.03 577.62) rotate(-67.67)" style="fill:#fff;stroke:#263238;stroke-linecap:round;stroke-linejoin:round"></circle><polygon points="218.2 69.78 88.03 95.96 348.36 95.96 218.2 69.78" style="fill:#9DC3C1"></polygon><g style="clip-path:url(#freepik--clip-path--inject-183)"><polygon points="218.2 69.78 88.03 95.96 348.36 95.96 218.2 69.78" style="fill:#fff;opacity:0.4"></polygon></g><polygon points="218.2 69.78 88.03 95.96 348.36 95.96 218.2 69.78" style="fill:none;stroke:#263238;stroke-linecap:round;stroke-linejoin:round"></polygon><polygon points="274.44 95.96 218.2 69.78 160.7 95.96 274.44 95.96" style="fill:#404040;stroke:#263238;stroke-linecap:round;stroke-linejoin:round"></polygon><path d="M160.37,96.35H275.28a0,0,0,0,1,0,0v10.78a6,6,0,0,1-6,6H166.4a6,6,0,0,1-6-6V96.35A0,0,0,0,1,160.37,96.35Z" style="fill:#263238;stroke:#263238;stroke-linecap:round;stroke-linejoin:round"></path><path d="M276.42,96.35h71.81a0,0,0,0,1,0,0v10.78a6,6,0,0,1-6,6H282.44a6,6,0,0,1-6-6V96.35A0,0,0,0,1,276.42,96.35Z" style="fill:#9DC3C1;stroke:#263238;stroke-linecap:round;stroke-linejoin:round"></path><path d="M88,96.35h71.81a0,0,0,0,1,0,0v10.78a6,6,0,0,1-6,6H94.06a6,6,0,0,1-6-6V96.35A0,0,0,0,1,88,96.35Z" style="fill:#9DC3C1;stroke:#263238;stroke-linecap:round;stroke-linejoin:round"></path><circle cx="172.4" cy="387.28" r="57.07" transform="translate(-82.46 48.53) rotate(-12.96)" style="fill:#263238;stroke:#263238;stroke-linecap:round;stroke-linejoin:round"></circle><circle cx="172.4" cy="387.28" r="48.27" style="fill:#fff;stroke:#263238;stroke-linecap:round;stroke-linejoin:round"></circle><path d="M177.23,387.28a4.83,4.83,0,1,0-4.83,4.83A4.82,4.82,0,0,0,177.23,387.28Z" style="fill:#fff;stroke:#263238;stroke-linecap:round;stroke-linejoin:round"></path><path d="M117.17,364.8A59.63,59.63,0,0,1,232,387.28c0,.38,0,.75,0,1.12l5.82,6.58a67.32,67.32,0,0,0,.46-7.7,65.88,65.88,0,0,0-129-18.75Z" style="fill:#474747;stroke:#263238;stroke-linecap:round;stroke-linejoin:round"></path><circle cx="286.5" cy="385.24" r="8.88" style="fill:#fff;stroke:#263238;stroke-linecap:round;stroke-linejoin:round"></circle><path d="M285.85,368.14h1.94a0,0,0,0,1,0,0v16a.63.63,0,0,1-.63.63h-.67a.63.63,0,0,1-.63-.63v-16A0,0,0,0,1,285.85,368.14Z" style="fill:#fff;stroke:#263238;stroke-linecap:round;stroke-linejoin:round"></path><rect x="281.01" y="366.02" width="13.56" height="4.52" style="fill:#9DC3C1;stroke:#263238;stroke-linecap:round;stroke-linejoin:round"></rect><path d="M346.23,270.6s4.36-3.23,5.33-.48-5,1.78-5,1.78,6.62,9.84,3.71,10-4-9.37-4-9.37l-1.29,15.82" style="fill:none;stroke:#263238;stroke-linecap:round;stroke-linejoin:round"></path><path d="M290.37,350.36a78.91,78.91,0,0,1-11,8.88c-5,3.07-6.62,4.85-3.71,6s11.46.8,18.57-1.62S306,356.17,307.81,355s-2.75-6.29-4.2-7.74S290.37,350.36,290.37,350.36Z" style="fill:#fff;stroke:#263238;stroke-linecap:round;stroke-linejoin:round"></path><path d="M345.43,274.64s1.77,11,.32,17.76-9,13.08-16.31,15.34-28.09,6.46-37.78,7.75-12,1.61-12,1.61,13.08,17.44,18.25,23.58,7.75,7.1,5.65,7.91-11.95,3.71-13.56,2.9-9.21-7.75-18.89-15-19.22-15.83-22.28-21.31,1-8.88,3.55-10.66,11.78-6.3,19.7-10.33,18.24-14.05,20.34-16,10.17,2.42,18.89,2.42,22.93-1.29,27-3.39S344.78,273.51,345.43,274.64Z" style="fill:#878787"></path><g style="clip-path:url(#freepik--clip-path-2--inject-183)"><path d="M329.44,307.74c7.27-2.26,14.86-8.56,16.31-15.34s-.32-17.76-.32-17.76c-.65-1.13-3.07.48-7.11,2.58a7.3,7.3,0,0,1-.83.37l-.6,5.12s5.37,3,4.77,5.07-7.75-.29-6.26,1.2,3.28,3.87,2.09,4.77-3.88-.9-4.77-1.79-.9,3.88-7.46,8.05S302,310.15,295.43,310.45s-15.51.6-18.49-1.19,32.21-14.91,38.78-19.39S310.35,280,300.21,280a58,58,0,0,0-11.89,2c-4.27,3.85-10.79,9.39-16.19,12.15-7.92,4-17.12,8.55-19.7,10.33s-6.62,5.17-3.55,10.66,12.59,14,22.28,21.31,17.27,14.21,18.89,15,11.46-2.1,13.56-2.9-.48-1.78-5.65-7.91-18.25-23.58-18.25-23.58,2.26-.32,12-1.61S322.18,310,329.44,307.74Z" style="opacity:0.30000000000000004"></path></g><path d="M345.43,274.64s1.77,11,.32,17.76-9,13.08-16.31,15.34-28.09,6.46-37.78,7.75-12,1.61-12,1.61,13.08,17.44,18.25,23.58,7.75,7.1,5.65,7.91-11.95,3.71-13.56,2.9-9.21-7.75-18.89-15-19.22-15.83-22.28-21.31,1-8.88,3.55-10.66,11.78-6.3,19.7-10.33,18.24-14.05,20.34-16,10.17,2.42,18.89,2.42,22.93-1.29,27-3.39S344.78,273.51,345.43,274.64Z" style="fill:none;stroke:#263238;stroke-linecap:round;stroke-linejoin:round"></path><path d="M325,286.52a17.85,17.85,0,0,1,11.39,12.09" style="fill:none;stroke:#263238;stroke-linecap:round;stroke-linejoin:round"></path><path d="M329.45,286.87a12.85,12.85,0,0,1,9.67,6.21" style="fill:none;stroke:#263238;stroke-linecap:round;stroke-linejoin:round"></path><line x1="279.71" y1="317.1" x2="266.31" y2="316.78" style="fill:none;stroke:#263238;stroke-linecap:round;stroke-linejoin:round"></line><path d="M264.44,255.48s-14.85-1.78-17.43-2.42-7.43-1.46-8.88-.33-1.3,5.65-1.94,8.24,2.9,3.23,4.36,3.55,2.58.16,1.61-1-.64-3.71.33-4.36,3.39.32,4.19,1.62a5.91,5.91,0,0,0,6.3,2.42,16.19,16.19,0,0,0,6-2.58l6.62.32Z" style="fill:#fff;stroke:#263238;stroke-linecap:round;stroke-linejoin:round"></path><path d="M314.66,204.3s-6.3-2.59-9.37,5.49-5.17,38.75-5.17,38.75l-36.32,6.62.16,6s22.44,4.2,37.3,2.74,21.79-1.29,22.28-4.68.32-44.72-.49-47.79" style="fill:#9DC3C1;stroke:#263238;stroke-linecap:round;stroke-linejoin:round"></path><path d="M294.73,208.6a47.48,47.48,0,0,0-2.26,15.18c.16,8.4,1,20.51-1.29,31s-3.39,24.7,3.07,27.45,24.05,4.84,34.87,2.1,16.31-2.91,16.79-10.66S342,244,336.71,226.36s-17.44-29.22-21.31-32.13-4.85-4.19-5.82-3.87-7.42,8.4-10.65,11.95A21,21,0,0,0,294.73,208.6Z" style="fill:#9DC3C1"></path><g style="clip-path:url(#freepik--clip-path-3--inject-183)"><path d="M329.12,284.33c10.82-2.75,16.31-2.91,16.79-10.66.23-3.73-.66-10.76-2.24-19-5.1-.26-15.51-3.18-15-8.95.63-6.91,6.29-13.5,6.29-13.5s-6.29,6-7.86,3.76c-1.43-2,1.85-9.52,2.43-10.79a12.5,12.5,0,0,1-4.94,5.14c-3.77,2.2-2.51-1.25-2.51-1.25-5-6.91-6.6,1.25-7.85,4.71s-2.51,17.58-5.66,23.24c-2.46,4.43-13.93,5.69-18.78,6-1,8.57-.41,17.11,4.45,19.17C300.7,285,318.3,287.07,329.12,284.33Z" style="opacity:0.30000000000000004"></path></g><path d="M294.73,208.6a47.48,47.48,0,0,0-2.26,15.18c.16,8.4,1,20.51-1.29,31s-3.39,24.7,3.07,27.45,24.05,4.84,34.87,2.1,16.31-2.91,16.79-10.66S342,244,336.71,226.36s-17.44-29.22-21.31-32.13-4.85-4.19-5.82-3.87-7.42,8.4-10.65,11.95A21,21,0,0,0,294.73,208.6Z" style="fill:none;stroke:#263238;stroke-linecap:round;stroke-linejoin:round"></path><path d="M324.27,236.45a27.85,27.85,0,0,0,6.91-13.81" style="fill:none;stroke:#263238;stroke-linecap:round;stroke-linejoin:round"></path><path d="M325.31,238.52s4.84,1.38,9-4.14" style="fill:none;stroke:#263238;stroke-linecap:round;stroke-linejoin:round"></path><path d="M278.58,161.78s-3.22,4-3.22,7.43-1.14,7.59-2.27,9-3.71,2.58-2.74,4.36a6.63,6.63,0,0,0,3.23,2.58c.06,0,.43,4.31.5,4.7,1.12,5.74,6.31,9.73,11.93,10.64,5,.81,7.91,3.07,8.24,3.72s14.69-16.31,14.69-16.31-3.88-3.39-3.88-4.85,2.91-2.26,2.26-3.87.81-3.88-6.94-11.79S282.3,157.42,278.58,161.78Z" style="fill:#fff"></path><g style="clip-path:url(#freepik--clip-path-4--inject-183)"><path d="M278.58,161.78s-3.22,4-3.22,7.43a20.28,20.28,0,0,1-.26,3.06c6.45.49,17.29,1.31,19,1.53,1.2.15,6.61.52,11.9.86a30.84,30.84,0,0,0-5.66-7.23C292.63,159.52,282.3,157.42,278.58,161.78Z" style="opacity:0.2"></path><path d="M299.79,194.21c-5,4.71-11,4.4-17.9,2.52a17,17,0,0,1-6.47-3.26A14.91,14.91,0,0,0,286,200.53c5,.81,7.91,3.07,8.24,3.72.21.42,6.53-6.8,10.81-11.78C304.48,190.62,303.08,191.13,299.79,194.21Z" style="opacity:0.2"></path></g><path d="M278.58,161.78s-3.22,4-3.22,7.43-1.14,7.59-2.27,9-3.71,2.58-2.74,4.36a6.63,6.63,0,0,0,3.23,2.58c.06,0,.43,4.31.5,4.7,1.12,5.74,6.31,9.73,11.93,10.64,5,.81,7.91,3.07,8.24,3.72s14.69-16.31,14.69-16.31-3.88-3.39-3.88-4.85,2.91-2.26,2.26-3.87.81-3.88-6.94-11.79S282.3,157.42,278.58,161.78Z" style="fill:none;stroke:#263238;stroke-linecap:round;stroke-linejoin:round"></path><path d="M300.38,167.43a29.72,29.72,0,0,0-3.88-3.32c-4.05-.19-6.29-.07-6.29-.07l-.49,3.07s-1.61,9.36,1.3,8.88,2.74-3.71,4.36-5,5.32,3.39,4.19,6.61a7.17,7.17,0,0,1-4.36,4.2s.81,1.78,5.66,2.26a23.72,23.72,0,0,0,4.63.14,2.26,2.26,0,0,1-.44-1.11c0-1.45,2.91-2.26,2.26-3.87S308.13,175.34,300.38,167.43Z" style="fill:#696969;stroke:#263238;stroke-linecap:round;stroke-linejoin:round"></path><ellipse cx="279.55" cy="176.15" rx="1.13" ry="1.94" style="fill:#263238"></ellipse><path d="M278.58,171.31s3.23-3.23,4,2.42" style="fill:none;stroke:#263238;stroke-linecap:round;stroke-linejoin:round"></path><path d="M290.05,192.46c4.52-2.1,4.68-10.5,4.68-10.5" style="fill:none;stroke:#263238;stroke-linecap:round;stroke-linejoin:round"></path><path d="M277.62,188.26s3.22.65,4.68-3.71" style="fill:none;stroke:#263238;stroke-linecap:round;stroke-linejoin:round"></path><path d="M275.84,158.23s12.27,8.72,19.7,14.05S307,181,308,180.51s.81-2.74.81-2.74,7.1-3.23,7.58-9.53-6.94-10.17-15.66-17.44-18.56-11.94-22.76-6.94-.65,10.5-.65,10.5Z" style="fill:#9DC3C1"></path><g style="clip-path:url(#freepik--clip-path-5--inject-183)"><path d="M295.54,172.28C303,177.6,307,181,308,180.51s.81-2.74.81-2.74,7.1-3.23,7.58-9.53c.31-4-2.57-7-6.95-10.55a19,19,0,0,1,.2,6.56c-.79,5.27-1.84,4.74-13.43-4.74-10.93-8.94-14.6-13.19-20.28-10.34a10.29,10.29,0,0,0,1.39,5.19l-1.45,3.87S288.11,167,295.54,172.28Z" style="opacity:0.30000000000000004"></path></g><path d="M275.84,158.23s12.27,8.72,19.7,14.05S307,181,308,180.51s.81-2.74.81-2.74,7.1-3.23,7.58-9.53-6.94-10.17-15.66-17.44-18.56-11.94-22.76-6.94-.65,10.5-.65,10.5Z" style="fill:none;stroke:#263238;stroke-linecap:round;stroke-linejoin:round"></path><path d="M275.84,158.23s-16.15,4.52-11.46,6.94S288,167.11,288,167.11Z" style="fill:#263238;stroke:#263238;stroke-linecap:round;stroke-linejoin:round"></path><path d="M308,180.51c.86-.43.83-2.24.81-2.65-2.06-3.19-11.24-12.81-17.44-17.05A52,52,0,0,0,277.11,154l.18.32-1.45,3.87s12.27,8.72,19.7,14.05S307,181,308,180.51Z" style="fill:#474747;stroke:#263238;stroke-linecap:round;stroke-linejoin:round"></path><polygon points="307.97 185.68 289.89 205.21 292.79 213.61 314.27 190.2 307.97 185.68" style="fill:#9DC3C1;stroke:#263238;stroke-linecap:round;stroke-linejoin:round"></polygon><path d="M264.86,258.82S250,257,247.42,256.4s-7.42-1.46-8.88-.33-1.29,5.65-1.93,8.24,2.9,3.23,4.36,3.55,2.58.16,1.61-1-.65-3.71.32-4.36,3.39.32,4.2,1.62a5.91,5.91,0,0,0,6.3,2.42,16.11,16.11,0,0,0,6-2.59l6.62.33Z" style="fill:#fff;stroke:#263238;stroke-linecap:round;stroke-linejoin:round"></path><path d="M313.78,193.27a76.6,76.6,0,0,1-6.13,11.94c-4.2,6.78-6.95,16.31-7.11,22.28s.49,32.13.81,35-1.78,3.88,12.75,6.46,32.13,1.61,32.13,1.61v1.94s-9.84-.16-18.72.32-12.76,1-14.37,2.91-1.62,3.55-10.18,15-21.31,17.27-27.44,19.37-7.11,2.42-7.11,2.42l-8.23-13.08s14.37-8.39,17.11-10.49.81-5,2.91-6.14a29.94,29.94,0,0,1,6.62-1.93,4.72,4.72,0,0,1-.81-3.39c.32-1.94,3.23-2.26,2.42-4s-1.13-5-.8-10.33,3.55-16.63,3.39-24.87a115,115,0,0,1,1.29-17.43l6.13,2.26a29,29,0,0,1,4-13.08c3.87-6.3,10-13.89,10-17.92Z" style="fill:#263238;stroke:#263238;stroke-linecap:round;stroke-linejoin:round"></path><path d="M315.07,207.64s-6.29-2.59-9.36,5.49-5.17,38.74-5.17,38.74l-36.33,6.62.17,6s22.44,4.2,37.29,2.74,21.8-1.29,22.28-4.68.33-44.72-.48-47.79" style="fill:#9DC3C1"></path><g style="clip-path:url(#freepik--clip-path-6--inject-183)"><path d="M316.44,256.08c-1.3,4.91-34.24,8.33-45.89,9.39,7.71,1.14,21.13,2.72,31.12,1.74,14.86-1.45,21.8-1.29,22.28-4.68.4-2.76.36-30.74-.1-42.65l-.19-.23S318,250.12,316.44,256.08Z" style="opacity:0.30000000000000004"></path></g><path d="M315.07,207.64s-6.29-2.59-9.36,5.49-5.17,38.74-5.17,38.74l-36.33,6.62.17,6s22.44,4.2,37.29,2.74,21.8-1.29,22.28-4.68.33-44.72-.48-47.79" style="fill:none;stroke:#263238;stroke-linecap:round;stroke-linejoin:round"></path><path d="M300.54,251.87s.25,2.88,10.61,3.57" style="fill:none;stroke:#263238;stroke-linecap:round;stroke-linejoin:round"></path><circle cx="245.38" cy="265.47" r="4.54" style="fill:#fff;stroke:#263238;stroke-linecap:round;stroke-linejoin:round"></circle><path d="M329.54,225.19c.06-.12.09-.2.09-.2Z"></path></g><g id="freepik--Floor--inject-183"><line x1="39.08" y1="444.36" x2="474" y2="444.36" style="fill:none;stroke:#263238;stroke-linecap:round;stroke-linejoin:round"></line></g></svg>