<svg xmlns="http://www.w3.org/2000/svg" viewBox="0 0 500 500"><g id="freepik--Floor--inject-32"><ellipse id="freepik--floor--inject-32" cx="250" cy="349.35" rx="229.93" ry="132.75" style="fill:#f0f0f0"></ellipse></g><g id="freepik--Shadow--inject-32"><ellipse id="freepik--shadow--inject-32" cx="315.99" cy="412.25" rx="77.18" ry="44.56" style="fill:#e0e0e0"></ellipse></g><g id="freepik--Clouds--inject-32"><g id="freepik--clouds--inject-32"><path d="M419.6,65.46l8.21,4.74a10.13,10.13,0,0,1-.07-1.09V66.74c0-4.24,3-5.95,6.63-3.84a12.88,12.88,0,0,1,4,3.81c.6-5.32,4.78-7.31,9.85-4.38,5.48,3.17,9.93,10.87,9.93,17.2v3.56a9.32,9.32,0,0,1-.85,4.12l6.82,3.94a8.1,8.1,0,0,1,3.68,6.37c0,2.35-1.64,3.3-3.68,2.13L419.6,74a8.11,8.11,0,0,1-3.68-6.37C415.92,65.24,417.56,64.29,419.6,65.46Z" style="fill:#ebebeb"></path><path d="M384.46,89.38l6.2,3.58a7.67,7.67,0,0,1-.05-.82v-1.8c0-3.19,2.24-4.49,5-2.89a9.66,9.66,0,0,1,3,2.87c.46-4,3.61-5.51,7.43-3.3a16.57,16.57,0,0,1,7.5,13v2.68a7,7,0,0,1-.64,3.11l5.15,3a6.18,6.18,0,0,1,2.78,4.82c0,1.77-1.25,2.49-2.78,1.6L384.46,95.8A6.15,6.15,0,0,1,381.69,91C381.69,89.21,382.93,88.49,384.46,89.38Z" style="fill:#ebebeb"></path></g></g><g id="freepik--Plants--inject-32"><g id="freepik--plants--inject-32"><path d="M77.89,316.31l8.39-4.8s4-22.19,1-41.26c-4.24-26.81-22.5-36.06-29.13-33.4S50,247.46,62,263C69,272.1,78.11,291.42,77.89,316.31Z" style="fill:#37474f"></path><path d="M80.93,305.66h-.08a.59.59,0,0,1-.51-.67c3.46-25.11-6.63-52.61-18-63.7a.59.59,0,0,1,.83-.85C74.75,251.71,85,279.67,81.52,305.14A.6.6,0,0,1,80.93,305.66Z" style="fill:#fff"></path><path d="M54.6,329.76c-1.33.76-4.06-.9-5.11-1.61a12.59,12.59,0,0,1-4.21-4.83,11.8,11.8,0,0,1-1.05-7.12,27.47,27.47,0,0,1,.9-3.79l1-3.68a9.27,9.27,0,0,0,.54-3.71c-.32-2.51-2.55-4.27-4.58-5.79-2.24-1.68-4.58-3.9-4.57-6.93A10.68,10.68,0,0,1,40.24,286c1.45-1.83,3.16-3.45,4.47-5.39a7.46,7.46,0,0,0,1.53-4.7,7.83,7.83,0,0,0-1-2.94c-1.07-2-2.48-3.78-3.21-5.89s-.64-4.76,1-6.27c1.35-1.25,3.37-1.42,5.21-1.3a11.92,11.92,0,0,1,4.84,1.71c4.81,2.67,7.55,8.36,12.65,10.42a51.41,51.41,0,0,0,6.17,1.51c2,.54,4.15,1.59,5.1,3.48,1.87,3.74-1.61,8.35-.29,12.32,1.16,3.52,4.58,4.86,6.49,8a7.44,7.44,0,0,1,.9,4.59,22.15,22.15,0,0,1-1.94,7.78,55.82,55.82,0,0,1-4.26,7C77.81,316.38,54.8,329.64,54.6,329.76Z" style="fill:#455a64"></path><path d="M68.22,322.5h0a.59.59,0,0,1-.58-.62c1-23.76-10.21-50-18.35-57.62a.6.6,0,1,1,.82-.87c8.3,7.77,19.72,34.44,18.72,58.54A.6.6,0,0,1,68.22,322.5Z" style="fill:#fff"></path><path d="M64.66,294.43a.47.47,0,0,1-.17,0,80.16,80.16,0,0,0-17.25-2.78.59.59,0,0,1-.57-.62.58.58,0,0,1,.62-.58,82.17,82.17,0,0,1,17.55,2.84.6.6,0,0,1-.18,1.17Z" style="fill:#fff"></path></g></g><g id="freepik--Envelopes--inject-32"><g id="freepik--Letter--inject-32"><path d="M109.31,81.05,73.73,60.51a.74.74,0,0,0-.89,0c-.21.18-1.49.83-1.71,1a1.15,1.15,0,0,0-.38,1v32A3,3,0,0,0,72,96.82l6.25,3.6L110.15,82A2.35,2.35,0,0,0,109.31,81.05Z" style="fill:#9DC3C1"></path><path d="M109.31,81.05,73.73,60.51a.74.74,0,0,0-.89,0c-.21.18-1.49.83-1.71,1a1.15,1.15,0,0,0-.38,1v32A3,3,0,0,0,72,96.82l6.25,3.6L110.15,82A2.35,2.35,0,0,0,109.31,81.05Z" style="fill:#fff;opacity:0.5"></path><path d="M108.39,117.4c.25-.15,1.54-.87,1.76-1a1.12,1.12,0,0,0,.39-1v-32a3,3,0,0,0-.39-1.41L78.23,100.42l29.33,16.94A.76.76,0,0,0,108.39,117.4Z" style="fill:#9DC3C1"></path><path d="M108.39,117.4c.25-.15,1.54-.87,1.76-1a1.12,1.12,0,0,0,.39-1v-32a3,3,0,0,0-.39-1.41L78.23,100.42l29.33,16.94A.76.76,0,0,0,108.39,117.4Z" style="opacity:0.2"></path><path d="M107.56,117.36,72,96.82a3,3,0,0,1-1.23-2.35v-32c0-.9.55-1.32,1.23-.92l35.58,20.54a2.93,2.93,0,0,1,1.23,2.34v32C108.79,117.33,108.24,117.75,107.56,117.36Z" style="fill:#9DC3C1"></path><path d="M108.79,116.43v-.63L94.08,91.42l14.52-8c0-.09-.07-.18-.11-.27L90.4,90.65c-.38.16-.88-.12-1.26-.72L71.07,61.54l-.11.12,14.5,24.79L70.75,93.84v.63a3.32,3.32,0,0,0,.37,1.45l15.09-8.19,2.14,3.65c.84,1.44,2,2.11,2.85,1.64l2.13-1.18,15.06,25.56A1.14,1.14,0,0,0,108.79,116.43Z" style="opacity:0.2"></path><polygon points="189.1 130.94 114.49 85.45 114.49 90.22 189.1 130.94" style="fill:#e0e0e0"></polygon><polygon points="161.95 144.83 114.5 114.95 114.49 114.96 114.49 119.69 161.95 144.83" style="fill:#e0e0e0"></polygon><polygon points="114.5 100.2 114.49 100.21 114.49 104.96 174.64 137.5 114.5 100.2" style="fill:#e0e0e0"></polygon></g><g id="freepik--letter--inject-32"><path d="M188,58.48,152.46,37.94a.74.74,0,0,0-.9,0c-.2.17-1.49.82-1.71,1a1.13,1.13,0,0,0-.37,1v32a2.93,2.93,0,0,0,1.23,2.35L157,77.85l31.92-18.44A2.45,2.45,0,0,0,188,58.48Z" style="fill:#9DC3C1"></path><path d="M188,58.48,152.46,37.94a.74.74,0,0,0-.9,0c-.2.17-1.49.82-1.71,1a1.13,1.13,0,0,0-.37,1v32a2.93,2.93,0,0,0,1.23,2.35L157,77.85l31.92-18.44A2.45,2.45,0,0,0,188,58.48Z" style="fill:#fff;opacity:0.5"></path><path d="M187.12,94.83c.24-.16,1.53-.87,1.75-1a1.12,1.12,0,0,0,.39-1v-32a3,3,0,0,0-.39-1.41L157,77.85l29.33,16.93A.78.78,0,0,0,187.12,94.83Z" style="fill:#9DC3C1"></path><path d="M187.12,94.83c.24-.16,1.53-.87,1.75-1a1.12,1.12,0,0,0,.39-1v-32a3,3,0,0,0-.39-1.41L157,77.85l29.33,16.93A.78.78,0,0,0,187.12,94.83Z" style="opacity:0.2"></path><path d="M186.28,94.78,150.71,74.24a2.93,2.93,0,0,1-1.23-2.35v-32c0-.91.55-1.32,1.23-.93l35.57,20.54a2.93,2.93,0,0,1,1.23,2.35v32C187.51,94.76,187,95.17,186.28,94.78Z" style="fill:#9DC3C1"></path><path d="M187.51,93.85v-.63L172.8,68.85l14.52-8c0-.09-.07-.18-.1-.26l-18.1,7.54c-.38.16-.87-.13-1.26-.73L149.8,39a.63.63,0,0,0-.11.12l14.5,24.79-14.71,7.39v.63a3.15,3.15,0,0,0,.37,1.45l15.08-8.19,2.14,3.65c.85,1.45,2,2.12,2.85,1.65l2.14-1.19,15.06,25.57A1.17,1.17,0,0,0,187.51,93.85Z" style="opacity:0.2"></path><polygon points="267.83 108.37 193.22 62.87 193.22 67.64 267.83 108.37" style="fill:#e0e0e0"></polygon><polygon points="240.68 122.25 193.22 92.38 193.22 92.38 193.22 97.11 240.68 122.25" style="fill:#e0e0e0"></polygon><polygon points="193.22 77.63 193.22 77.63 193.22 82.38 253.36 114.93 193.22 77.63" style="fill:#e0e0e0"></polygon></g><g id="freepik--letter--inject-32"><path d="M122.2,152.45,86.62,131.91a.74.74,0,0,0-.89,0c-.21.18-1.49.82-1.71,1a1.15,1.15,0,0,0-.38,1v32a3,3,0,0,0,1.23,2.35l6.25,3.6L123,153.38A2.39,2.39,0,0,0,122.2,152.45Z" style="fill:#9DC3C1"></path><path d="M122.2,152.45,86.62,131.91a.74.74,0,0,0-.89,0c-.21.18-1.49.82-1.71,1a1.15,1.15,0,0,0-.38,1v32a3,3,0,0,0,1.23,2.35l6.25,3.6L123,153.38A2.39,2.39,0,0,0,122.2,152.45Z" style="fill:#fff;opacity:0.5"></path><path d="M121.28,188.8c.24-.16,1.54-.87,1.76-1a1.12,1.12,0,0,0,.39-1v-32a3.06,3.06,0,0,0-.39-1.42L91.12,171.82l29.33,16.94A.76.76,0,0,0,121.28,188.8Z" style="fill:#9DC3C1"></path><path d="M121.28,188.8c.24-.16,1.54-.87,1.76-1a1.12,1.12,0,0,0,.39-1v-32a3.06,3.06,0,0,0-.39-1.42L91.12,171.82l29.33,16.94A.76.76,0,0,0,121.28,188.8Z" style="opacity:0.2"></path><path d="M120.45,188.76,84.87,168.22a3,3,0,0,1-1.23-2.35v-32c0-.9.55-1.32,1.23-.93l35.58,20.55a2.93,2.93,0,0,1,1.23,2.34v32C121.68,188.73,121.13,189.15,120.45,188.76Z" style="fill:#9DC3C1"></path><path d="M121.68,187.83v-.63L107,162.82l14.52-8c0-.09-.07-.18-.11-.27l-18.09,7.54c-.38.16-.88-.12-1.26-.73L84,132.94a.43.43,0,0,0-.11.12l14.5,24.79-14.71,7.39v.63a3.27,3.27,0,0,0,.37,1.44l15.09-8.19,2.13,3.65c.85,1.45,2,2.12,2.85,1.65l2.14-1.18,15.06,25.56A1.14,1.14,0,0,0,121.68,187.83Z" style="opacity:0.2"></path><polygon points="201.99 202.34 127.38 156.85 127.38 161.62 201.99 202.34" style="fill:#e0e0e0"></polygon><polygon points="174.84 216.23 127.38 186.35 127.38 186.36 127.38 191.08 174.84 216.23" style="fill:#e0e0e0"></polygon><polygon points="127.39 171.6 127.38 171.61 127.38 176.36 187.53 208.9 127.39 171.6" style="fill:#e0e0e0"></polygon></g></g><g id="freepik--Character--inject-32"><g id="freepik--character--inject-32"><path d="M371.39,421.74c.07,3-.35,6.27-2.9,8.43-5.28,4.5-15.34,2.45-20.2-.14-5.89-3.13-8.52-7.95-13-10.7a58.1,58.1,0,0,0-8.33-3.72c-2.25-.93-4.64-1.76-5.11-4.53a9.52,9.52,0,0,1,0-2.5,3.61,3.61,0,0,1,.19-1,2.86,2.86,0,0,1,.88-1.08c1.77-1.43,4.18-1.73,6.44-2a19.91,19.91,0,0,1,4.69-.1,17.37,17.37,0,0,1,5,1.61l5.7,2.76,11.4,5.54Z" style="fill:#37474f"></path><path d="M325.74,389.45c1.34-2,4.36-1.17,6.52-1a55.21,55.21,0,0,1,8.57,1.46c1.67.43,3.88,1.13,4.73,2.76,1,2,1.56,4.2,2.57,6.19a21.93,21.93,0,0,0,6.69,7.27c2.67,2,5.53,3.71,8.05,5.87a30.21,30.21,0,0,1,4.09,4.22,14.44,14.44,0,0,1,2.85,5.17c.55,2,.45,4.85-1.12,6.37a10.54,10.54,0,0,1-6.07,2.48,24.71,24.71,0,0,1-12.29-2.52c-3.51-1.74-6.22-4.63-8.92-7.39a22.09,22.09,0,0,0-3.91-3.57,32.54,32.54,0,0,0-4.79-2.32c-3.06-1.3-6.2-2.56-8.83-4.64a5,5,0,0,1-1.43-1.58,5.09,5.09,0,0,1-.35-2.48,30.52,30.52,0,0,1,1.83-7.71,20.29,20.29,0,0,0,.87-3.93,15.44,15.44,0,0,1,.6-4A3.5,3.5,0,0,1,325.74,389.45Z" style="fill:#9DC3C1"></path><path d="M350.31,428.11a8.64,8.64,0,0,1-3-2c0-3.47.45-6.31,2.51-9.3,2.51-3.64,6.69-5.56,11.11-6.32,3,.67,4.37.95,6.75,3.1a13.34,13.34,0,0,1,4.12,7,7.55,7.55,0,0,1-3.06,7.52,13.81,13.81,0,0,1-6.42,2.52C357.93,431,355.06,430.32,350.31,428.11Z" style="fill:#fafafa"></path><path d="M327,401.08s-2.57-.79-5.38-7.18a17.08,17.08,0,0,1-1.28-7.72,20.33,20.33,0,0,0-7.28-16.3A96.68,96.68,0,0,1,292.5,345.6c-7.08-11.6-8.22,8.84,9.71,28.82,0,0-1.71-.2-6.55-3.43-2.81-1.87-5.49-4.5-8-6.34-5.13-3.76-1.06,12.54,15.1,22.21,0,0-6.3-.7-10.26-2.48s-2.22,4.91,7.22,9.9a72.87,72.87,0,0,0,16.39,5.94,18.26,18.26,0,0,1,7.64,3.88l2.06,1.76Z" style="fill:#9DC3C1"></path><path d="M327,401.08s-2.57-.79-5.38-7.18a17.08,17.08,0,0,1-1.28-7.72,20.33,20.33,0,0,0-7.28-16.3A96.68,96.68,0,0,1,292.5,345.6c-7.08-11.6-8.22,8.84,9.71,28.82,0,0-1.71-.2-6.55-3.43-2.81-1.87-5.49-4.5-8-6.34-5.13-3.76-1.06,12.54,15.1,22.21,0,0-6.3-.7-10.26-2.48s-2.22,4.91,7.22,9.9a72.87,72.87,0,0,0,16.39,5.94,18.26,18.26,0,0,1,7.64,3.88l2.06,1.76Z" style="fill:#fff;opacity:0.6"></path><path d="M302.21,374.42c-10.58-13.55-14.1-31.54-12.06-31.74C285.43,339.12,286.52,356.94,302.21,374.42Z" style="opacity:0.1"></path><path d="M287.66,364.65c-5.13-3.76-1.06,12.54,15.1,22.21C290.62,377.78,286.32,365.21,287.66,364.65Z" style="opacity:0.1"></path><path d="M313.39,399.51c-4.56-2.23-10.22-4.66-14.26-7.39-5.12-3.46-8.09-7.08-7.82-8a.66.66,0,0,0-.15,0,.78.78,0,0,0-.23.07l-.13.1a.89.89,0,0,0-.13.14.77.77,0,0,0-.07.16l-.06.2a1.48,1.48,0,0,0,0,.21c0,.09,0,.18,0,.28s0,.15,0,.24a2.68,2.68,0,0,0,.1.35l.09.26a4.54,4.54,0,0,0,.21.45l.12.25c.14.24.29.5.47.76l.07.09a8.29,8.29,0,0,0,.55.74l.25.29.51.58.34.35c.18.18.37.37.58.56l.41.37c.21.19.43.37.66.56l.47.38.77.58c.17.12.33.24.51.35s.63.42,1,.63l.47.3c.5.3,1,.61,1.59.9A68,68,0,0,0,313.39,399.51Z" style="opacity:0.1"></path><path d="M306.66,221.22l30.63,1s16.36,64.92,15.18,87.15c-1.24,23.2-8.9,82.92-8.9,82.92-.19,3.54-17,2.65-16.78-.88,0,0-1-9.61-1.33-13.9-1.32-16.59-2.37-22.13-3.71-36.26-1.78-18.74,0-23.94.34-31.21,0,0-16.95-41.61-23.9-64.72C294.11,231.79,304.19,226.18,306.66,221.22Z" style="fill:#ffa8a7"></path><path d="M326.58,399.74a7.84,7.84,0,0,1,3.56,6.16c0,2.26-1.59,3.18-3.56,2.05a7.86,7.86,0,0,1-3.55-6.16C323,399.53,324.62,398.61,326.58,399.74Z" style="fill:#455a64"></path><path d="M326.58,402a3.46,3.46,0,0,1,1.56,2.71c0,1-.7,1.4-1.56.9a3.46,3.46,0,0,1-1.56-2.71C325,402,325.72,401.55,326.58,402Z" style="fill:#37474f"></path><path d="M152.19,329.37a7,7,0,0,1-3.85-2.17c-1.25-1.31-1.46-8.54,3.53-15.73A37.43,37.43,0,0,1,167,299.07c3.76-1.82,5.94-4.85,8.37-8.43s7.18-7.32,9.56-7.19,5.71,3,5.71,3Z" style="fill:#37474f"></path><path d="M196.65,312.06l-.06.43a3.19,3.19,0,0,1-.45,1.33,3.52,3.52,0,0,1-2.61,1.11c-4.24.51-8.23,1-12.1,2.89a34,34,0,0,0-9.52,7.16,45.45,45.45,0,0,1-3.38,3.42c-1.33,1.12-2.8,1.49-4.27,2.32a11.48,11.48,0,0,1-3.33,1.17,10.68,10.68,0,0,1-2.93.22,8.55,8.55,0,0,1-5.82-2.73,5.07,5.07,0,0,1-1.34-3.24c-.14-3.79,2.36-12.36,9.56-19.07,3.92-3.66,9.65-3.63,14.78-10.23,2.6-3.34,8.57-10.89,13-11.73,2-.38,5.34,2.82,6.53,4.13,1.79,2,3.64,4.43,5.78,6a11.48,11.48,0,0,1,2.08,1.64c2,2.38-2.09,3.76-3.31,5.19C197,304.75,197.11,308.77,196.65,312.06Z" style="fill:#9DC3C1"></path><path d="M201.32,298c17.15-3.62,40.54-12.47,57.92-8.65,5-27.08,11.1-53.29,19.42-78.47,11.27-2.5,22.45-4.8,33.82-7.28,4,16.41,6.38,29.64.34,46.59-6.48,18.15-16.41,39.7-24.54,57.08-6.16,13.17-14.07,11.76-28.47,11.31-16.87-.53-47.89-3.39-62.43-4.4C189.43,314.73,192.51,299.09,201.32,298Z" style="fill:#ffa8a7"></path><path d="M259.21,289.31c-8.2-1.8-17.74-.78-27.33,1.18,11-1.29,23.52-.63,24.42,3.9,1.37,6.93,5,9.3,5,9.3C257.56,299.11,259,290.42,259.21,289.31Z" style="opacity:0.2"></path><path d="M157.6,310s4.56,1.07,9.93,5.67a10.39,10.39,0,0,1,3.8,10.25s-4,7.25-11.86,6.66c-6.4-.48-8.63-3.61-8.63-3.61s-1.68-3.75.68-9.59A29,29,0,0,1,157.6,310Z" style="fill:#fafafa"></path><path d="M188.36,301.58s.53-2.64,6.61-6.06a17.12,17.12,0,0,1,7.56-2,20.33,20.33,0,0,0,15.5-8.86,96.46,96.46,0,0,1,22.14-22.81c10.84-8.2-9.61-7.32-27.73,12.5,0,0,0-1.72,2.77-6.86,1.58-3,3.94-5.91,5.52-8.58,3.23-5.48-12.58.18-20.61,17.22,0,0,.08-6.34,1.45-10.46s-5.1-1.73-9.13,8.16a72.23,72.23,0,0,0-4.29,16.9,18.39,18.39,0,0,1-3.12,8l-1.54,2.21Z" style="fill:#9DC3C1"></path><path d="M188.36,301.58s.53-2.64,6.61-6.06a17.12,17.12,0,0,1,7.56-2,20.33,20.33,0,0,0,15.5-8.86,96.46,96.46,0,0,1,22.14-22.81c10.84-8.2-9.61-7.32-27.73,12.5,0,0,0-1.72,2.77-6.86,1.58-3,3.94-5.91,5.52-8.58,3.23-5.48-12.58.18-20.61,17.22,0,0,.08-6.34,1.45-10.46s-5.1-1.73-9.13,8.16a72.23,72.23,0,0,0-4.29,16.9,18.39,18.39,0,0,1-3.12,8l-1.54,2.21Z" style="fill:#fff;opacity:0.6"></path><path d="M212.44,274.32c12.44-11.87,30-17.14,30.4-15.14C245.92,254.14,228.29,257,212.44,274.32Z" style="opacity:0.1"></path><path d="M220.73,258.88c3.23-5.48-12.58.18-20.61,17.22C208,263.12,220,257.6,220.73,258.88Z" style="opacity:0.1"></path><path d="M188.58,287.92c1.77-4.75,3.63-10.63,5.95-14.92,2.94-5.44,6.25-8.74,7.21-8.58a.5.5,0,0,0-.05-.13.69.69,0,0,0-.09-.23.38.38,0,0,0-.11-.11.57.57,0,0,0-.15-.12.85.85,0,0,0-.17-.06.66.66,0,0,0-.21,0h-.21l-.27.05-.24.06-.33.14-.26.12-.42.25-.24.14c-.23.16-.46.34-.71.54a.6.6,0,0,0-.08.08c-.22.19-.45.39-.68.62l-.27.27c-.17.19-.35.37-.53.58s-.2.24-.3.37l-.51.63-.33.44-.49.71-.33.51c-.17.26-.33.54-.5.83l-.3.53c-.18.33-.36.67-.53,1-.09.17-.17.33-.25.5-.26.53-.51,1.09-.74,1.67A68.24,68.24,0,0,0,188.58,287.92Z" style="opacity:0.1"></path><path d="M182.76,299.85a7.84,7.84,0,0,1,6-3.88c2.27-.12,3.27,1.42,2.24,3.44a7.86,7.86,0,0,1-6,3.88C182.73,303.41,181.73,301.87,182.76,299.85Z" style="fill:#455a64"></path><path d="M185.05,299.72a3.51,3.51,0,0,1,2.62-1.7c1,0,1.44.63,1,1.51a3.46,3.46,0,0,1-2.61,1.71C185,301.29,184.6,300.61,185.05,299.72Z" style="fill:#37474f"></path><path d="M273,218.92a278,278,0,0,0-8.4,30.14c-3.23,15.35-7.06,35.18-7.06,35.18s7.71,15.29,35.49,14.94l14.41-25.89,10.77,28.46s21.77,2.5,34.32-10.49c-.2-1.64-10.58-54.85-14.38-69.79Z" style="fill:#9DC3C1"></path><path d="M307.44,273.29l9.23-17A30.41,30.41,0,0,0,327,252.09s-1.78,4.06-7.75,7.28c-.54.91-7.64,15.1-7.64,15.1l6.64,27.28Z" style="fill:#263238;opacity:0.15"></path><path d="M269.36,192.05S286.91,182.43,294,172l5.64,6.19s-13.33,15.76-27.94,21.39Z" style="fill:#9DC3C1"></path><path d="M269.36,192.05S286.91,182.43,294,172l5.64,6.19s-13.33,15.76-27.94,21.39Z" style="opacity:0.30000000000000004"></path><path d="M184.63,226.85c.88-6,5-9,17-20.85s21.5-19.59,32.68-19.74,33.34,2.08,35.05,5.79-35.05,40.64-35.05,40.64Z" style="fill:#9DC3C1"></path><path d="M184.63,226.85c.88-6,5-9,17-20.85s21.5-19.59,32.68-19.74,33.34,2.08,35.05,5.79-35.05,40.64-35.05,40.64Z" style="opacity:0.2"></path><polygon points="234.31 232.69 271.67 199.53 269.36 192.05 231.53 226.31 234.31 232.69" style="fill:#9DC3C1"></polygon><polygon points="234.31 232.69 271.67 199.53 269.36 192.05 231.53 226.31 234.31 232.69" style="opacity:0.4"></polygon><path d="M271.67,199.53c.32-.29.53-3.17.63-3.67a23,23,0,0,0,.26-7.76,13.31,13.31,0,0,0-10.45-11.29,5.33,5.33,0,0,0-4.46.58c-1.48,1.16-1.64,3.29-2.08,5.12-1.15,4.74-4.85,8.47-8.93,11.13s-8.65,4.49-12.83,7a61.35,61.35,0,0,0-7.36,5.28,10.11,10.11,0,0,0-2.74,3,3.69,3.69,0,0,0,.08,3.86,6.82,6.82,0,0,0,1.93,1.47c3.92,2.44,7.74,7.42,5.81,12.08l2.78,6.38Z" style="fill:#9DC3C1"></path><path d="M271.67,199.53c.32-.29.53-3.17.63-3.67a23,23,0,0,0,.26-7.76,13.31,13.31,0,0,0-10.45-11.29,5.33,5.33,0,0,0-4.46.58c-1.48,1.16-1.64,3.29-2.08,5.12-1.15,4.74-4.85,8.47-8.93,11.13s-8.65,4.49-12.83,7a61.35,61.35,0,0,0-7.36,5.28,10.11,10.11,0,0,0-2.74,3,3.69,3.69,0,0,0,.08,3.86,6.82,6.82,0,0,0,1.93,1.47c3.92,2.44,7.74,7.42,5.81,12.08l2.78,6.38Z" style="opacity:0.4"></path><path d="M234.31,232.69c-9.49,5.46-20.08,13.74-29,12.19s-25.83-16.94-19.28-19.78,45.46,1.21,45.46,1.21Z" style="fill:#9DC3C1"></path><path d="M234.31,232.69c-9.49,5.46-20.08,13.74-29,12.19s-25.83-16.94-19.28-19.78,45.46,1.21,45.46,1.21Z" style="opacity:0.4"></path><path d="M354,214.15c5.7,1.69,14.17,3.7,20.56,5,15.94,3.31,23,2.74,27.16-2.85,6.69-8.93,3.24-11.26-5.5-11a39.22,39.22,0,0,1-10.88-1.06,19.78,19.78,0,0,0,5-2.22c2.42-1.74,2.15-4,1.6-4.95-.43-.71-2.12.49-5.46.86-4.27.47-6.83-.55-11.18,1.09-1.62.6-4.75,1.31-10.28-.09-6.47-1.65-29.18-13.32-29.18-13.32l-7.82,21S345.46,211.61,354,214.15Z" style="fill:#ffa8a7"></path><path d="M327,132.46c7.42-.45,17.2,3.33,19.62,12.17,2.78,10.14-5.43,35.09-5.43,35.09Z" style="fill:#ffa8a7"></path><path d="M330.2,132.42a16,16,0,0,1,13.25,4.75c6.24,6.06,4.12,15.46,3.7,20.71s-5.44,22.89-5.44,22.89Z" style="fill:#e0e0e0"></path><path d="M285,132.17c-4.3,1.4-8.73,5.71-7.84,21.28.94,16.55,1.25,44.41,1.25,44.41-.21,5.09-2.94,11.56-5.4,21.06,8.36,11.18,54.4,13.39,65.15,2.55,0,0,6.44-39.18,5.31-62.6-.7-14.23-3-24.73-16.5-26.41l-23.64-1.56S289.35,130.76,285,132.17Z" style="fill:#f0f0f0"></path><path d="M297,102.23s2.76,14.33,3.93,16.7a6.47,6.47,0,0,0,3.68,3.09l0-10Z" style="fill:#263238"></path><path d="M301.21,81.86a7,7,0,0,0-5.86,1.93C292.8,86.3,294,94.33,297,102.23l5.71.77Z" style="fill:#263238"></path><path d="M304.43,103c-1.16.66-2.75-1.58-4.14-3.08s-6-3.62-8.36,1.19,1.81,11.52,5.42,12.74c6.23,2.08,7.25-1.92,7.25-1.92l0,22.62c2.65,3.07,13.13,13.79,18,13.63s4.11-11.21,2.42-13.84l.11-6.88s5.66,1,8.44.6c4.62-.62,7.59-4.2,9.09-9.17,2.4-8,3.38-14.42,1.78-30.22-1.76-17.31-21.85-17.88-32.83-11.26S304.43,103,304.43,103Z" style="fill:#ffa8a7"></path><path d="M304.4,105c-.58,0-2.71-3.69-4.11-5-1.93-1.83.88-17.85.92-18.1s-.31-1.19-.31-1.64a7.49,7.49,0,0,1,.49-2.6,10,10,0,0,1,3.19-4.31,19.48,19.48,0,0,1,8.36-3.39,81.83,81.83,0,0,1,9.62-1.21,45.33,45.33,0,0,1,12.15.25,15.4,15.4,0,0,1,3.7,1.14,16.25,16.25,0,0,1,3.22,2.11,11.45,11.45,0,0,1,3.89,6.21c.65,2.36-1.32,3.48-3.37,4.1,0,0-2.15,1.84-9.51,2.59s-18.77-.54-20.33-.78c-2.12-.33-2.62,1.72-3.87,7.34C307.33,96.6,306.34,105,304.4,105Z" style="fill:#263238"></path><path d="M325.16,127.5s-10.25-2.27-13.81-4.25a11.9,11.9,0,0,1-4.88-5,16.25,16.25,0,0,0,2.72,5.86c2.56,3.42,15.94,5.27,15.94,5.27Z" style="fill:#f28f8f"></path><path d="M323.2,100.83a2.08,2.08,0,0,1-2.1,2.09,2.11,2.11,0,0,1-2-2.19,2.06,2.06,0,1,1,4.12.1Z" style="fill:#263238"></path><path d="M319.37,94l-4.46,2.35A2.65,2.65,0,0,1,316,92.9,2.45,2.45,0,0,1,319.37,94Z" style="fill:#263238"></path><path d="M324.47,115.1l4.67,1.86a2.46,2.46,0,0,1-3.23,1.49A2.63,2.63,0,0,1,324.47,115.1Z" style="fill:#f28f8f"></path><path d="M342.93,96.37l-4-3.18a2.45,2.45,0,0,1,3.51-.47A2.68,2.68,0,0,1,342.93,96.37Z" style="fill:#263238"></path><path d="M340.36,100.57a2.06,2.06,0,1,1-2-2.19A2.1,2.1,0,0,1,340.36,100.57Z" style="fill:#263238"></path><polygon points="330.2 98.72 330.2 111.23 337.63 109.74 330.2 98.72" style="fill:#f28f8f"></polygon><path d="M326.26,132.41s13.61,17.58-.9,50.69-59.82,44-93.83,43.21l2.78,6.38s53.78,2.15,81-23.21c23-21.39,31.45-53.78,18.68-76.26C334,133.22,331.14,131.5,326.26,132.41Z" style="fill:#9DC3C1"></path><path d="M326.26,132.41s13.61,17.58-.9,50.69-59.82,44-93.83,43.21l2.78,6.38s53.78,2.15,81-23.21c23-21.39,31.45-53.78,18.68-76.26C334,133.22,331.14,131.5,326.26,132.41Z" style="opacity:0.30000000000000004"></path><path d="M262.9,230.33a39.57,39.57,0,0,1-6.33-8.91,19.62,19.62,0,0,0,4.94,2.3c2.89.69,4.45-1,4.78-2,.26-.79-1.75-1.27-4.22-3.56-3.16-2.92-3.51-5.26-6.86-8.49-1.25-1.21-2.93-2.1-3.32-3.79-2.24-9.67-3.16-21.52-4.19-32l29.92-10.16s6.56-1.9,12.74-8.82c6.89-7.71,9.28-17.08,2.57-23.76a17.74,17.74,0,0,0-9.24.61c-6.26,2.31-11.23,4.58-21.12,9.23-8.62,4.06-32.28,14.28-36.7,20.7-1.81,2.65-1.05,8.89,2.14,22.41h0c1.45,6.65,3.29,14.1,5.21,22.12a157.91,157.91,0,0,0,5.7,18.57c6.21,15,12.31,17.4,19.29,16.91C269.34,240.89,268.84,236.75,262.9,230.33Z" style="fill:#ffa8a7"></path><path d="M297,130.9s-9.66-1.54-16.73,1.52c-11.23,4.87-35.42,16.08-35.42,16.08s-1.38,5.7,1.38,13.79,6.51,11.2,6.51,11.2,26-8.46,31.59-11.2S302.11,147,297,130.9Z" style="fill:#e0e0e0"></path><path d="M309.34,91s15,9.45,31.4,4.6c17.32-5.14,4.45-14.72,4.45-14.72Z" style="fill:#37474f"></path><path d="M350.54,68.68c-5.24-5.48-24.1-10.25-40.72-4.89s-20,12.35-20,12.35A39.11,39.11,0,0,0,313,79.94C326.43,78.05,350.54,68.68,350.54,68.68Z" style="fill:#9DC3C1"></path><path d="M350.54,68.68c-5.24-5.48-24.1-10.25-40.72-4.89s-20,12.35-20,12.35A39.11,39.11,0,0,0,313,79.94C326.43,78.05,350.54,68.68,350.54,68.68Z" style="fill:#fff;opacity:0.4"></path><path d="M292.39,81.28a19,19,0,0,1-2.57-5.14s2.16,1.76,13.48-1c10.75-2.59,21.56-9.88,33.6-11.43s13.64,4.94,13.64,4.94.37,4.73-4.41,9.65c0,0-4.74,7.76-18.88,9.32S292.39,81.28,292.39,81.28Z" style="fill:#9DC3C1"></path><path d="M331.76,75.32c.28,3.3,2.73,5.42,5.47,4.74s4.73-3.9,4.45-7.2-2.73-5.42-5.47-4.74S331.48,72,331.76,75.32Z" style="fill:#f5f5f5"></path><path d="M292.39,81.28l.35,2.26c.21,1.39.43,2.56,1.2,3.22a61.49,61.49,0,0,0,33.21,4c10-1.6,14.74-4,16.75-5.8s2.27-3.06,2.26-4.45l0-2.19s-3.59,4.08-20,6.86S292.39,81.28,292.39,81.28Z" style="fill:#455a64"></path><path d="M298.24,86.44s-1.58,0-4.34-3a10,10,0,0,1-2.17-4,11.92,11.92,0,0,0-7.13-7.65,56.51,56.51,0,0,1-16-9.56c-6.12-5.08-2.88,6.46,10.85,14.13,0,0-1,.21-4.29-.66-1.91-.5-3.89-1.46-5.63-2-3.55-1.11,1.79,7.15,12.58,9.44a25,25,0,0,1-6.16.58c-2.52-.24-.3,3.14,5.88,4.11a42.77,42.77,0,0,0,10.2.18,10.79,10.79,0,0,1,5,.7l1.48.59Z" style="fill:#9DC3C1"></path><path d="M298.24,86.44s-1.58,0-4.34-3a10,10,0,0,1-2.17-4,11.92,11.92,0,0,0-7.13-7.65,56.51,56.51,0,0,1-16-9.56c-6.12-5.08-2.88,6.46,10.85,14.13,0,0-1,.21-4.29-.66-1.91-.5-3.89-1.46-5.63-2-3.55-1.11,1.79,7.15,12.58,9.44a25,25,0,0,1-6.16.58c-2.52-.24-.3,3.14,5.88,4.11a42.77,42.77,0,0,0,10.2.18,10.79,10.79,0,0,1,5,.7l1.48.59Z" style="fill:#fff;opacity:0.6"></path><path d="M279.48,76.37c-8.44-5.5-13.8-14.8-12.71-15.3C263.48,60,267.47,69.66,279.48,76.37Z" style="opacity:0.1"></path><path d="M269.56,73.71c-3.55-1.11,1.79,7.15,12.58,9.44C273.69,80.42,268.92,74.28,269.56,73.71Z" style="opacity:0.1"></path><path d="M290.43,88.15a75,75,0,0,1-9.31-1.4c-3.49-.94-5.82-2.39-5.85-3l-.08,0-.11.08A.18.18,0,0,0,275,84a.47.47,0,0,0,0,.1.34.34,0,0,0,0,.1.57.57,0,0,0,0,.13l0,.12a1.16,1.16,0,0,1,.06.15l.07.12.12.18.11.13.2.2.11.12a4.69,4.69,0,0,0,.4.33l.06,0c.13.1.28.2.44.3l.19.12.4.22.25.13.43.2.3.13.47.19.33.11.54.18.35.1.65.17.32.07c.33.08.68.14,1.05.2A40.48,40.48,0,0,0,290.43,88.15Z" style="opacity:0.1"></path><path d="M299.16,83.75a7.86,7.86,0,0,1,3.56,6.15c0,2.27-1.59,3.19-3.56,2.06a7.87,7.87,0,0,1-3.55-6.16C295.61,83.53,297.2,82.62,299.16,83.75Z" style="fill:#9DC3C1"></path><path d="M299.16,83.75a7.86,7.86,0,0,1,3.56,6.15c0,2.27-1.59,3.19-3.56,2.06a7.87,7.87,0,0,1-3.55-6.16C295.61,83.53,297.2,82.62,299.16,83.75Z" style="opacity:0.30000000000000004"></path><path d="M299.16,86.05a3.46,3.46,0,0,1,1.56,2.7c0,1-.7,1.4-1.56.9A3.43,3.43,0,0,1,297.6,87C297.6,86,298.3,85.55,299.16,86.05Z" style="fill:#263238"></path></g></g></svg>